IbarraReal-BoldItalic.ufo
<glyph name="quotesingle" format="2">
  <advance width="287"/>
  <unicode hex="0027"/>
  <outline>
    <contour>
      <point x="173" y="401" type="line"/>
      <point x="250" y="401" type="line"/>
      <point x="428" y="710" type="line"/>
      <point x="254" y="710" type="line"/>
    </contour>
  </outline>
</glyph>
<glyph name="hyphen" format="2">
  <advance width="313"/>
  <unicode hex="002D"/>
  <outline>
    <contour>
      <point x="52" y="330" type="line"/>
      <point x="52" y="240" type="line"/>
      <point x="313" y="240" type="line"/>
      <point x="313" y="330" type="line"/>
    </contour>
  </outline>
</glyph>
<glyph name="period" format="2">
  <advance width="285"/>
  <unicode hex="002E"/>
  <outline>
    <contour>
      <point x="82" y="-11" type="curve" smooth="yes"/>
      <point x="128" y="-11"/>
      <point x="165" y="26"/>
      <point x="165" y="72" type="curve" smooth="yes"/>
      <point x="165" y="118"/>
      <point x="128" y="156"/>
      <point x="82" y="156" type="curve" smooth="yes"/>
      <point x="36" y="156"/>
      <point x="-1" y="118"/>
      <point x="-1" y="72" type="curve" smooth="yes"/>
      <point x="-1" y="26"/>
      <point x="36" y="-11"/>
    </contour>
  </outline>
</glyph>
<glyph name="zero" format="2">
  <advance width="625"/>
  <unicode hex="0030"/>
  <outline>
    <contour>
      <point x="272" y="-8" type="curve" smooth="yes"/>
      <point x="431" y="-8"/>
      <point x="558" y="140"/>
      <point x="617" y="315" type="curve" smooth="yes"/>
      <point x="635" y="368"/>
      <point x="647" y="422"/>
      <point x="647" y="472" type="curve" smooth="yes"/>
      <point x="647" y="590"/>
      <point x="587" y="682"/>
      <point x="438" y="682" type="curve" smooth="yes"/>
      <point x="283" y="682"/>
      <point x="169" y="551"/>
      <point x="110" y="379" type="curve" smooth="yes"/>
      <point x="88" y="315"/>
      <point x="76" y="252"/>
      <point x="76" y="196" type="curve" smooth="yes"/>
      <point x="76" y="69"/>
      <point x="144" y="-8"/>
    </contour>
    <contour>
      <point x="262" y="27" type="curve" smooth="yes"/>
      <point x="213" y="27"/>
      <point x="195" y="68"/>
      <point x="195" y="110" type="curve" smooth="yes"/>
      <point x="195" y="173"/>
      <point x="223" y="265"/>
      <point x="256" y="361" type="curve" smooth="yes"/>
      <point x="310" y="517"/>
      <point x="364" y="646"/>
      <point x="450" y="646" type="curve" smooth="yes"/>
      <point x="505" y="646"/>
      <point x="523" y="601"/>
      <point x="523" y="558" type="curve" smooth="yes"/>
      <point x="523" y="502"/>
      <point x="501" y="421"/>
      <point x="470" y="333" type="curve" smooth="yes"/>
      <point x="415" y="174"/>
      <point x="352" y="27"/>
    </contour>
  </outline>
</glyph>
<glyph name="eight" format="2">
  <advance width="588"/>
  <unicode hex="0038"/>
  <outline>
    <contour>
      <point x="224" y="-12" type="curve" smooth="yes"/>
      <point x="387" y="-12"/>
      <point x="523" y="56"/>
      <point x="523" y="198" type="curve" smooth="yes"/>
      <point x="523" y="294"/>
      <point x="466" y="348"/>
      <point x="412" y="393" type="curve" smooth="yes"/>
      <point x="366" y="431"/>
      <point x="324" y="469"/>
      <point x="324" y="528" type="curve" smooth="yes"/>
      <point x="324" y="598"/>
      <point x="386" y="635"/>
      <point x="439" y="635" type="curve" smooth="yes"/>
      <point x="481" y="635"/>
      <point x="506" y="613"/>
      <point x="506" y="566" type="curve" smooth="yes"/>
      <point x="506" y="485"/>
      <point x="448" y="432"/>
      <point x="369" y="395" type="curve"/>
      <point x="415" y="359" type="line"/>
      <point x="523" y="383"/>
      <point x="642" y="447"/>
      <point x="642" y="565" type="curve" smooth="yes"/>
      <point x="642" y="635"/>
      <point x="556" y="678"/>
      <point x="458" y="679" type="curve" smooth="yes"/>
      <point x="319" y="680"/>
      <point x="182" y="614"/>
      <point x="182" y="491" type="curve" smooth="yes"/>
      <point x="182" y="419"/>
      <point x="230" y="372"/>
      <point x="278" y="328" type="curve" smooth="yes"/>
      <point x="324" y="286"/>
      <point x="370" y="241"/>
      <point x="370" y="173" type="curve" smooth="yes"/>
      <point x="370" y="74"/>
      <point x="303" y="33"/>
      <point x="242" y="33" type="curve" smooth="yes"/>
      <point x="199" y="33"/>
      <point x="162" y="61"/>
      <point x="162" y="126" type="curve" smooth="yes"/>
      <point x="162" y="197"/>
      <point x="206" y="285"/>
      <point x="322" y="328" type="curve"/>
      <point x="289" y="360" type="line"/>
      <point x="153" y="342"/>
      <point x="20" y="263"/>
      <point x="20" y="139" type="curve" smooth="yes"/>
      <point x="20" y="40"/>
      <point x="114" y="-12"/>
    </contour>
  </outline>
</glyph>
<glyph name="A" format="2">
  <advance width="763"/>
  <unicode hex="0041"/>
  <anchor x="605" y="690" name="topcase"/>
  <outline>
    <contour>
      <point x="-84" y="0" type="line"/>
      <point x="180" y="0" type="line"/>
      <point x="189" y="22" type="line"/>
      <point x="109" y="37" type="line" smooth="yes"/>
      <point x="89" y="41"/>
      <point x="79" y="52"/>
      <point x="96" y="74" type="curve" smooth="yes"/>
      <point x="527" y="533" type="line"/>
      <point x="503" y="533" type="line"/>
      <point x="463" y="87" type="line" smooth="yes"/>
      <point x="459" y="52"/>
      <point x="449" y="42"/>
      <point x="403" y="33" type="curve" smooth="yes"/>
      <point x="348" y="22" type="line"/>
      <point x="339" y="0" type="line"/>
      <point x="669" y="0" type="line"/>
      <point x="678" y="22" type="line"/>
      <point x="631" y="33" type="line" smooth="yes"/>
      <point x="602" y="40"/>
      <point x="591" y="46"/>
      <point x="592" y="62" type="curve" smooth="yes"/>
      <point x="645" y="698" type="line"/>
      <point x="631" y="698" type="line"/>
      <point x="623" y="677"/>
      <point x="572" y="637"/>
      <point x="508" y="635" type="curve"/>
      <point x="505" y="558" type="line"/>
      <point x="56" y="75" type="line" smooth="yes"/>
      <point x="37" y="55"/>
      <point x="20" y="42"/>
      <point x="-12" y="35" type="curve" smooth="yes"/>
      <point x="-75" y="22" type="line"/>
    </contour>
    <contour>
      <point x="218" y="226" type="line"/>
      <point x="503" y="226" type="line"/>
      <point x="517" y="259" type="line"/>
      <point x="236" y="259" type="line"/>
    </contour>
  </outline>
</glyph>
<glyph name="B" format="2">
  <advance width="728"/>
  <unicode hex="0042"/>
  <outline>
    <contour>
      <point x="-59" y="0" type="line"/>
      <point x="320" y="0" type="line" smooth="yes"/>
      <point x="518" y="0"/>
      <point x="670" y="82"/>
      <point x="670" y="247" type="curve" smooth="yes"/>
      <point x="670" y="315"/>
      <point x="606" y="362"/>
      <point x="523" y="371" type="curve"/>
      <point x="524" y="373" type="line"/>
      <point x="651" y="393"/>
      <point x="759" y="451"/>
      <point x="759" y="556" type="curve" smooth="yes"/>
      <point x="759" y="642"/>
      <point x="682" y="673"/>
      <point x="533" y="673" type="curve" smooth="yes"/>
      <point x="213" y="673" type="line"/>
      <point x="204" y="651" type="line"/>
      <point x="251" y="640" type="line" smooth="yes"/>
      <point x="293" y="630"/>
      <point x="298" y="623"/>
      <point x="281" y="581" type="curve" smooth="yes"/>
      <point x="83" y="92" type="line" smooth="yes"/>
      <point x="66" y="50"/>
      <point x="55" y="43"/>
      <point x="5" y="33" type="curve" smooth="yes"/>
      <point x="-50" y="22" type="line"/>
    </contour>
    <contour>
      <point x="258" y="33" type="line" smooth="yes"/>
      <point x="213" y="33"/>
      <point x="204" y="44"/>
      <point x="222" y="88" type="curve" smooth="yes"/>
      <point x="329" y="353" type="line"/>
      <point x="411" y="353" type="line" smooth="yes"/>
      <point x="485" y="353"/>
      <point x="519" y="314"/>
      <point x="519" y="252" type="curve" smooth="yes"/>
      <point x="519" y="135"/>
      <point x="409" y="33"/>
      <point x="285" y="33" type="curve" smooth="yes"/>
    </contour>
    <contour>
      <point x="342" y="386" type="line"/>
      <point x="445" y="640" type="line"/>
      <point x="493" y="640" type="line" smooth="yes"/>
      <point x="575" y="640"/>
      <point x="607" y="614"/>
      <point x="607" y="559" type="curve" smooth="yes"/>
      <point x="607" y="466"/>
      <point x="536" y="386"/>
      <point x="417" y="386" type="curve" smooth="yes"/>
    </contour>
  </outline>
</glyph>
<glyph name="D" format="2">
  <advance width="791"/>
  <unicode hex="0044"/>
  <anchor x="549" y="690" name="topcase"/>
  <outline>
    <contour>
      <point x="-59" y="0" type="line"/>
      <point x="325" y="0" type="line" smooth="yes"/>
      <point x="617" y="0"/>
      <point x="819" y="186"/>
      <point x="819" y="434" type="curve" smooth="yes"/>
      <point x="819" y="558"/>
      <point x="720" y="673"/>
      <point x="519" y="673" type="curve" smooth="yes"/>
      <point x="213" y="673" type="line"/>
      <point x="204" y="651" type="line"/>
      <point x="251" y="640" type="line" smooth="yes"/>
      <point x="293" y="630"/>
      <point x="298" y="623"/>
      <point x="281" y="581" type="curve" smooth="yes"/>
      <point x="83" y="92" type="line" smooth="yes"/>
      <point x="66" y="50"/>
      <point x="55" y="43"/>
      <point x="5" y="33" type="curve" smooth="yes"/>
      <point x="-50" y="22" type="line"/>
    </contour>
    <contour>
      <point x="289" y="33" type="curve" smooth="yes"/>
      <point x="230" y="33"/>
      <point x="207" y="53"/>
      <point x="223" y="92" type="curve" smooth="yes"/>
      <point x="445" y="642" type="line"/>
      <point x="490" y="642" type="line" smooth="yes"/>
      <point x="624" y="642"/>
      <point x="672" y="580"/>
      <point x="672" y="450" type="curve" smooth="yes"/>
      <point x="672" y="229"/>
      <point x="552" y="33"/>
    </contour>
  </outline>
</glyph>
<glyph name="J" format="2">
  <advance width="454"/>
  <unicode hex="004A"/>
  <anchor x="457" y="690" name="topcase"/>
  <outline>
    <contour>
      <point x="-48" y="-202" type="curve" smooth="yes"/>
      <point x="19" y="-202"/>
      <point x="92" y="-165"/>
      <point x="145" y="-110" type="curve" smooth="yes"/>
      <point x="172" y="-81"/>
      <point x="195" y="-58"/>
      <point x="214" y="-58" type="curve" smooth="yes"/>
      <point x="216" y="-58" type="line"/>
      <point x="475" y="581" type="line" smooth="yes"/>
      <point x="492" y="623"/>
      <point x="503" y="630"/>
      <point x="553" y="640" type="curve" smooth="yes"/>
      <point x="608" y="651" type="line"/>
      <point x="617" y="673" type="line"/>
      <point x="267" y="673" type="line"/>
      <point x="258" y="651" type="line"/>
      <point x="305" y="640" type="line" smooth="yes"/>
      <point x="347" y="630"/>
      <point x="352" y="623"/>
      <point x="335" y="581" type="curve" smooth="yes"/>
      <point x="80" y="-48" type="line" smooth="yes"/>
      <point x="47" y="-129"/>
      <point x="5" y="-159"/>
      <point x="-18" y="-159" type="curve" smooth="yes"/>
      <point x="-34" y="-159"/>
      <point x="-50" y="-156"/>
      <point x="-50" y="-144" type="curve" smooth="yes"/>
      <point x="-50" y="-137"/>
      <point x="-41" y="-130"/>
      <point x="-31" y="-121" type="curve" smooth="yes"/>
      <point x="-18" y="-108"/>
      <point x="-2" y="-92"/>
      <point x="-2" y="-66" type="curve" smooth="yes"/>
      <point x="-2" y="-25"/>
      <point x="-31" y="-7"/>
      <point x="-65" y="-7" type="curve" smooth="yes"/>
      <point x="-110" y="-7"/>
      <point x="-156" y="-32"/>
      <point x="-156" y="-106" type="curve" smooth="yes"/>
      <point x="-156" y="-166"/>
      <point x="-102" y="-202"/>
    </contour>
  </outline>
</glyph>
<glyph name="S" format="2">
  <advance width="620"/>
  <unicode hex="0053"/>
  <anchor x="449" y="690" name="topcase"/>
  <outline>
    <contour>
      <point x="261" y="-10" type="curve" smooth="yes"/>
      <point x="408" y="-10"/>
      <point x="554" y="72"/>
      <point x="554" y="224" type="curve" smooth="yes"/>
      <point x="554" y="326"/>
      <point x="465" y="368"/>
      <point x="395" y="398" type="curve" smooth="yes"/>
      <point x="329" y="426"/>
      <point x="274" y="455"/>
      <point x="274" y="511" type="curve" smooth="yes"/>
      <point x="274" y="600"/>
      <point x="351" y="651"/>
      <point x="437" y="651" type="curve" smooth="yes"/>
      <point x="531" y="651"/>
      <point x="609" y="592"/>
      <point x="600" y="459" type="curve"/>
      <point x="631" y="459" type="line"/>
      <point x="635" y="527"/>
      <point x="646" y="581"/>
      <point x="682" y="626" type="curve"/>
      <point x="678" y="630" type="line"/>
      <point x="669" y="628"/>
      <point x="661" y="627"/>
      <point x="653" y="627" type="curve" smooth="yes"/>
      <point x="635" y="627"/>
      <point x="615" y="640"/>
      <point x="595" y="650" type="curve" smooth="yes"/>
      <point x="551" y="673"/>
      <point x="496" y="684"/>
      <point x="446" y="684" type="curve" smooth="yes"/>
      <point x="309" y="684"/>
      <point x="166" y="604"/>
      <point x="166" y="472" type="curve" smooth="yes"/>
      <point x="166" y="373"/>
      <point x="239" y="327"/>
      <point x="319" y="291" type="curve" smooth="yes"/>
      <point x="421" y="245"/>
      <point x="449" y="222"/>
      <point x="449" y="165" type="curve" smooth="yes"/>
      <point x="449" y="73"/>
      <point x="358" y="23"/>
      <point x="270" y="23" type="curve" smooth="yes"/>
      <point x="183" y="23"/>
      <point x="90" y="63"/>
      <point x="90" y="167" type="curve" smooth="yes"/>
      <point x="90" y="195"/>
      <point x="95" y="225"/>
      <point x="106" y="256" type="curve"/>
      <point x="70" y="256" type="line"/>
      <point x="57" y="178"/>
      <point x="42" y="131"/>
      <point x="11" y="70" type="curve"/>
      <point x="76" y="17"/>
      <point x="151" y="-10"/>
    </contour>
  </outline>
</glyph>
<glyph name="backslash" format="2">
  <advance width="446"/>
  <unicode hex="005C"/>
  <outline>
    <contour>
      <point x="334" y="-7" type="line"/>
      <point x="271" y="712" type="line"/>
      <point x="218" y="712" type="line"/>
      <point x="281" y="-7" type="line"/>
    </contour>
  </outline>
</glyph>
<glyph name="f" format="2">
  <advance width="335"/>
  <unicode hex="0066"/>
  <outline>
    <contour>
      <point x="-76" y="-247" type="curve" smooth="yes"/>
      <point x="-17" y="-247"/>
      <point x="21" y="-211"/>
      <point x="43" y="-178" type="curve" smooth="yes"/>
      <point x="58" y="-156"/>
      <point x="68" y="-138"/>
      <point x="86" y="-138" type="curve"/>
      <point x="284" y="517" type="line" smooth="yes"/>
      <point x="318" y="630"/>
      <point x="339" y="677"/>
      <point x="390" y="677" type="curve" smooth="yes"/>
      <point x="409" y="677"/>
      <point x="424" y="668"/>
      <point x="424" y="651" type="curve" smooth="yes"/>
      <point x="424" y="648"/>
      <point x="423" y="641"/>
      <point x="423" y="634" type="curve" smooth="yes"/>
      <point x="423" y="601"/>
      <point x="444" y="581"/>
      <point x="485" y="581" type="curve" smooth="yes"/>
      <point x="522" y="581"/>
      <point x="537" y="610"/>
      <point x="537" y="634" type="curve" smooth="yes"/>
      <point x="537" y="677"/>
      <point x="488" y="711"/>
      <point x="405" y="711" type="curve" smooth="yes"/>
      <point x="296" y="711"/>
      <point x="230" y="655"/>
      <point x="183" y="501" type="curve" smooth="yes"/>
      <point x="-11" y="-137" type="line" smooth="yes"/>
      <point x="-27" y="-190"/>
      <point x="-42" y="-216"/>
      <point x="-63" y="-216" type="curve" smooth="yes"/>
      <point x="-76" y="-216"/>
      <point x="-85" y="-207"/>
      <point x="-85" y="-187" type="curve" smooth="yes"/>
      <point x="-85" y="-130"/>
      <point x="-111" y="-116"/>
      <point x="-140" y="-116" type="curve" smooth="yes"/>
      <point x="-168" y="-116"/>
      <point x="-194" y="-135"/>
      <point x="-194" y="-173" type="curve" smooth="yes"/>
      <point x="-194" y="-213"/>
      <point x="-135" y="-247"/>
    </contour>
    <contour>
      <point x="85" y="407" type="line"/>
      <point x="359" y="407" type="line"/>
      <point x="374" y="442" type="line"/>
      <point x="99" y="442" type="line"/>
    </contour>
  </outline>
</glyph>
<glyph name="n" format="2">
  <advance width="585"/>
  <unicode hex="006E"/>
  <guideline x="618" y="451" angle="0"/>
  <anchor x="370" y="470" name="top"/>
  <outline>
    <contour>
      <point x="17" y="-12" type="line"/>
      <point x="123" y="0" type="line"/>
      <point x="198" y="195"/>
      <point x="365" y="368"/>
      <point x="412" y="368" type="curve" smooth="yes"/>
      <point x="428" y="368"/>
      <point x="433" y="356"/>
      <point x="424" y="336" type="curve" smooth="yes"/>
      <point x="316" y="86" type="line" smooth="yes"/>
      <point x="293" y="33"/>
      <point x="313" y="-8"/>
      <point x="366" y="-8" type="curve" smooth="yes"/>
      <point x="419" y="-8"/>
      <point x="474" y="48"/>
      <point x="558" y="167" type="curve"/>
      <point x="538" y="180" type="line"/>
      <point x="506" y="131"/>
      <point x="449" y="63"/>
      <point x="431" y="63" type="curve" smooth="yes"/>
      <point x="417" y="63"/>
      <point x="410" y="75"/>
      <point x="421" y="100" type="curve" smooth="yes"/>
      <point x="535" y="362" type="line" smooth="yes"/>
      <point x="557" y="412"/>
      <point x="541" y="451"/>
      <point x="492" y="451" type="curve" smooth="yes"/>
      <point x="378" y="451"/>
      <point x="258" y="286"/>
      <point x="193" y="184" type="curve"/>
      <point x="191" y="184" type="line"/>
      <point x="266" y="361" type="line" smooth="yes"/>
      <point x="288" y="414"/>
      <point x="268" y="450"/>
      <point x="222" y="450" type="curve" smooth="yes"/>
      <point x="169" y="450"/>
      <point x="114" y="394"/>
      <point x="30" y="275" type="curve"/>
      <point x="50" y="262" type="line"/>
      <point x="82" y="311"/>
      <point x="138" y="379"/>
      <point x="156" y="379" type="curve" smooth="yes"/>
      <point x="167" y="379"/>
      <point x="169" y="370"/>
      <point x="161" y="350" type="curve" smooth="yes"/>
    </contour>
  </outline>
</glyph>
<glyph name="r" format="2">
  <advance width="460"/>
  <unicode hex="0072"/>
  <anchor x="339" y="470" name="top"/>
  <outline>
    <contour>
      <point x="17" y="-12" type="line"/>
      <point x="123" y="0" type="line"/>
      <point x="202" y="195"/>
      <point x="319" y="375"/>
      <point x="379" y="375" type="curve" smooth="yes"/>
      <point x="398" y="375"/>
      <point x="404" y="358"/>
      <point x="413" y="340" type="curve" smooth="yes"/>
      <point x="418" y="330"/>
      <point x="428" y="321"/>
      <point x="446" y="321" type="curve" smooth="yes"/>
      <point x="477" y="321"/>
      <point x="506" y="346"/>
      <point x="506" y="388" type="curve" smooth="yes"/>
      <point x="506" y="423"/>
      <point x="480" y="451"/>
      <point x="434" y="451" type="curve" smooth="yes"/>
      <point x="332" y="451"/>
      <point x="248" y="286"/>
      <point x="191" y="184" type="curve"/>
      <point x="189" y="184" type="line"/>
      <point x="266" y="361" type="line" smooth="yes"/>
      <point x="289" y="414"/>
      <point x="268" y="450"/>
      <point x="222" y="450" type="curve" smooth="yes"/>
      <point x="169" y="450"/>
      <point x="114" y="394"/>
      <point x="30" y="275" type="curve"/>
      <point x="50" y="262" type="line"/>
      <point x="82" y="311"/>
      <point x="138" y="379"/>
      <point x="156" y="379" type="curve" smooth="yes"/>
      <point x="167" y="379"/>
      <point x="169" y="370"/>
      <point x="161" y="350" type="curve" smooth="yes"/>
    </contour>
  </outline>
</glyph>
<glyph name="v" format="2">
  <advance width="556"/>
  <unicode hex="0076"/>
  <outline>
    <contour>
      <point x="235" y="-6" type="curve" smooth="yes"/>
      <point x="365" y="-6"/>
      <point x="539" y="149"/>
      <point x="539" y="371" type="curve" smooth="yes"/>
      <point x="539" y="420"/>
      <point x="516" y="468"/>
      <point x="473" y="468" type="curve" smooth="yes"/>
      <point x="451" y="468"/>
      <point x="415" y="454"/>
      <point x="415" y="408" type="curve" smooth="yes"/>
      <point x="415" y="380"/>
      <point x="430" y="369"/>
      <point x="446" y="355" type="curve"/>
      <point x="462" y="339"/>
      <point x="480" y="320"/>
      <point x="480" y="279" type="curve" smooth="yes"/>
      <point x="480" y="156"/>
      <point x="382" y="79"/>
      <point x="305" y="79" type="curve" smooth="yes"/>
      <point x="260" y="79"/>
      <point x="231" y="98"/>
      <point x="231" y="164" type="curve" smooth="yes"/>
      <point x="231" y="274"/>
      <point x="269" y="335"/>
      <point x="340" y="417" type="curve" smooth="yes"/>
      <point x="347" y="425"/>
      <point x="359" y="435"/>
      <point x="359" y="445" type="curve" smooth="yes"/>
      <point x="359" y="451"/>
      <point x="355" y="457"/>
      <point x="347" y="457" type="curve" smooth="yes"/>
      <point x="335" y="457"/>
      <point x="332" y="453"/>
      <point x="321" y="444" type="curve" smooth="yes"/>
      <point x="307" y="433"/>
      <point x="287" y="432"/>
      <point x="267" y="432" type="curve" smooth="yes"/>
      <point x="248" y="432"/>
      <point x="230" y="438"/>
      <point x="213" y="443" type="curve" smooth="yes"/>
      <point x="198" y="447"/>
      <point x="182" y="451"/>
      <point x="166" y="451" type="curve" smooth="yes"/>
      <point x="97" y="451"/>
      <point x="40" y="393"/>
      <point x="40" y="318" type="curve" smooth="yes"/>
      <point x="40" y="276"/>
      <point x="65" y="240"/>
      <point x="99" y="240" type="curve" smooth="yes"/>
      <point x="130" y="240"/>
      <point x="147" y="257"/>
      <point x="147" y="283" type="curve" smooth="yes"/>
      <point x="147" y="304"/>
      <point x="132" y="316"/>
      <point x="108" y="324" type="curve" smooth="yes"/>
      <point x="94" y="329"/>
      <point x="80" y="335"/>
      <point x="80" y="348" type="curve" smooth="yes"/>
      <point x="80" y="365"/>
      <point x="100" y="373"/>
      <point x="124" y="373" type="curve" smooth="yes"/>
      <point x="138" y="373"/>
      <point x="157" y="369"/>
      <point x="176" y="363" type="curve"/>
      <point x="194" y="358"/>
      <point x="207" y="355"/>
      <point x="227" y="355" type="curve" smooth="yes"/>
      <point x="234" y="355"/>
      <point x="246" y="356"/>
      <point x="255" y="358" type="curve"/>
      <point x="257" y="355" type="line"/>
      <point x="195" y="287"/>
      <point x="131" y="222"/>
      <point x="131" y="100" type="curve" smooth="yes"/>
      <point x="131" y="30"/>
      <point x="177" y="-6"/>
    </contour>
  </outline>
</glyph>
<glyph name="x" format="2">
  <advance width="574"/>
  <unicode hex="0078"/>
  <outline>
    <contour>
      <point x="308" y="-8" type="curve" smooth="yes"/>
      <point x="385" y="-8"/>
      <point x="480" y="83"/>
      <point x="535" y="173" type="curve"/>
      <point x="516" y="183" type="line"/>
      <point x="464" y="109"/>
      <point x="414" y="76"/>
      <point x="379" y="76" type="curve" smooth="yes"/>
      <point x="349" y="76"/>
      <point x="327" y="95"/>
      <point x="327" y="147" type="curve" smooth="yes"/>
      <point x="327" y="304"/>
      <point x="399" y="394"/>
      <point x="468" y="394" type="curve" smooth="yes"/>
      <point x="488" y="394"/>
      <point x="489" y="377"/>
      <point x="492" y="359" type="curve" smooth="yes"/>
      <point x="495" y="340"/>
      <point x="499" y="321"/>
      <point x="530" y="321" type="curve" smooth="yes"/>
      <point x="564" y="321"/>
      <point x="577" y="344"/>
      <point x="577" y="380" type="curve" smooth="yes"/>
      <point x="577" y="416"/>
      <point x="554" y="451"/>
      <point x="503" y="451" type="curve" smooth="yes"/>
      <point x="407" y="451"/>
      <point x="239" y="294"/>
      <point x="231" y="91" type="curve" smooth="yes"/>
      <point x="229" y="27"/>
      <point x="261" y="-8"/>
    </contour>
    <contour>
      <point x="71" y="-9" type="curve" smooth="yes"/>
      <point x="167" y="-9"/>
      <point x="335" y="148"/>
      <point x="343" y="351" type="curve" smooth="yes"/>
      <point x="345" y="415"/>
      <point x="313" y="450"/>
      <point x="266" y="450" type="curve" smooth="yes"/>
      <point x="189" y="450"/>
      <point x="94" y="359"/>
      <point x="39" y="269" type="curve"/>
      <point x="58" y="259" type="line"/>
      <point x="110" y="333"/>
      <point x="160" y="366"/>
      <point x="195" y="366" type="curve" smooth="yes"/>
      <point x="225" y="366"/>
      <point x="247" y="347"/>
      <point x="247" y="295" type="curve" smooth="yes"/>
      <point x="247" y="138"/>
      <point x="175" y="48"/>
      <point x="106" y="48" type="curve" smooth="yes"/>
      <point x="86" y="48"/>
      <point x="85" y="65"/>
      <point x="82" y="83" type="curve" smooth="yes"/>
      <point x="79" y="102"/>
      <point x="75" y="121"/>
      <point x="44" y="121" type="curve" smooth="yes"/>
      <point x="10" y="121"/>
      <point x="-3" y="98"/>
      <point x="-3" y="62" type="curve" smooth="yes"/>
      <point x="-3" y="26"/>
      <point x="20" y="-9"/>
    </contour>
  </outline>
</glyph>
<glyph name="cent" format="2">
  <advance width="366"/>
  <unicode hex="00A2"/>
  <guideline x="269" y="538" angle="0"/>
  <outline>
    <contour>
      <point x="-28" y="-89" type="line"/>
      <point x="-6" y="-100" type="line"/>
      <point x="343" y="527" type="line"/>
      <point x="321" y="538" type="line"/>
    </contour>
    <component base="c"/>
  </outline>
</glyph>
<glyph name="brokenbar" format="2">
  <advance width="286"/>
  <unicode hex="00A6"/>
  <outline>
    <contour>
      <point x="120" y="260" type="line"/>
      <point x="190" y="260" type="line"/>
      <point x="190" y="681" type="line"/>
      <point x="120" y="681" type="line"/>
    </contour>
    <contour>
      <point x="190" y="-283" type="line"/>
      <point x="190" y="130" type="line"/>
      <point x="120" y="130" type="line"/>
      <point x="120" y="-283" type="line"/>
    </contour>
  </outline>
</glyph>
<glyph name="ordfeminine" format="2">
  <advance width="489"/>
  <unicode hex="00AA"/>
  <outline>
    <contour>
      <point x="190" y="370" type="curve" smooth="yes"/>
      <point x="243" y="370"/>
      <point x="327" y="417"/>
      <point x="365" y="473" type="curve"/>
      <point x="370" y="473" type="line"/>
      <point x="353" y="436" type="line" smooth="yes"/>
      <point x="338" y="403"/>
      <point x="343" y="370"/>
      <point x="387" y="370" type="curve" smooth="yes"/>
      <point x="429" y="370"/>
      <point x="475" y="410"/>
      <point x="541" y="499" type="curve"/>
      <point x="522" y="512" type="line"/>
      <point x="496" y="476"/>
      <point x="452" y="429"/>
      <point x="436" y="429" type="curve" smooth="yes"/>
      <point x="424" y="429"/>
      <point x="423" y="444"/>
      <point x="430" y="460" type="curve" smooth="yes"/>
      <point x="542" y="714" type="line"/>
      <point x="531" y="714" type="line"/>
      <point x="473" y="681" type="line"/>
      <point x="471" y="681" type="line"/>
      <point x="461" y="698"/>
      <point x="444" y="710"/>
      <point x="417" y="710" type="curve" smooth="yes"/>
      <point x="367" y="710"/>
      <point x="317" y="677"/>
      <point x="263" y="631" type="curve" smooth="yes"/>
      <point x="187" y="567"/>
      <point x="131" y="480"/>
      <point x="131" y="423" type="curve" smooth="yes"/>
      <point x="131" y="388"/>
      <point x="150" y="370"/>
    </contour>
    <contour>
      <point x="256" y="436" type="curve" smooth="yes"/>
      <point x="230" y="436"/>
      <point x="213" y="450"/>
      <point x="213" y="483" type="curve" smooth="yes"/>
      <point x="213" y="530"/>
      <point x="245" y="581"/>
      <point x="286" y="618" type="curve" smooth="yes"/>
      <point x="316" y="647"/>
      <point x="354" y="665"/>
      <point x="382" y="665" type="curve" smooth="yes"/>
      <point x="404" y="665"/>
      <point x="417" y="656"/>
      <point x="417" y="632" type="curve" smooth="yes"/>
      <point x="417" y="566"/>
      <point x="327" y="436"/>
    </contour>
  </outline>
</glyph>
<glyph name="twosuperior" format="2">
  <advance width="313"/>
  <unicode hex="00B2"/>
  <outline>
    <contour>
      <point x="80" y="349" type="line"/>
      <point x="307" y="349" type="line"/>
      <point x="375" y="461" type="line"/>
      <point x="354" y="461" type="line"/>
      <point x="344" y="448" type="line" smooth="yes"/>
      <point x="330" y="430"/>
      <point x="318" y="420"/>
      <point x="299" y="420" type="curve" smooth="yes"/>
      <point x="180" y="420" type="line"/>
      <point x="143" y="377" type="line"/>
      <point x="253" y="443" type="line" smooth="yes"/>
      <point x="310" y="478"/>
      <point x="425" y="550"/>
      <point x="425" y="625" type="curve" smooth="yes"/>
      <point x="425" y="661"/>
      <point x="391" y="686"/>
      <point x="324" y="686" type="curve" smooth="yes"/>
      <point x="249" y="686"/>
      <point x="186" y="656"/>
      <point x="186" y="608" type="curve" smooth="yes"/>
      <point x="186" y="586"/>
      <point x="200" y="579"/>
      <point x="215" y="579" type="curve" smooth="yes"/>
      <point x="235" y="579"/>
      <point x="255" y="590"/>
      <point x="255" y="609" type="curve" smooth="yes"/>
      <point x="255" y="617"/>
      <point x="253" y="625"/>
      <point x="253" y="632" type="curve" smooth="yes"/>
      <point x="253" y="649"/>
      <point x="272" y="662"/>
      <point x="300" y="662" type="curve" smooth="yes"/>
      <point x="332" y="662"/>
      <point x="342" y="650"/>
      <point x="342" y="631" type="curve" smooth="yes"/>
      <point x="342" y="555"/>
      <point x="261" y="493"/>
      <point x="209" y="453" type="curve" smooth="yes"/>
      <point x="84" y="359" type="line"/>
    </contour>
  </outline>
</glyph>
<glyph name="paragraph" format="2">
  <advance width="645"/>
  <unicode hex="00B6"/>
  <outline>
    <contour>
      <point x="101" y="-229" type="curve" smooth="yes"/>
      <point x="266" y="-229"/>
      <point x="374" y="-104"/>
      <point x="440" y="59" type="curve" smooth="yes"/>
      <point x="651" y="581" type="line" smooth="yes"/>
      <point x="668" y="623"/>
      <point x="678" y="630"/>
      <point x="728" y="640" type="curve" smooth="yes"/>
      <point x="784" y="651" type="line"/>
      <point x="793" y="673" type="line"/>
      <point x="514" y="673" type="line" smooth="yes"/>
      <point x="319" y="673"/>
      <point x="128" y="573"/>
      <point x="128" y="371" type="curve" smooth="yes"/>
      <point x="128" y="272"/>
      <point x="196" y="203"/>
      <point x="310" y="203" type="curve" smooth="yes"/>
      <point x="446" y="203" type="line"/>
      <point x="385" y="52" type="line" smooth="yes"/>
      <point x="328" y="-88"/>
      <point x="233" y="-190"/>
      <point x="108" y="-190" type="curve" smooth="yes"/>
      <point x="23" y="-190"/>
      <point x="-23" y="-152"/>
      <point x="-23" y="-89" type="curve" smooth="yes"/>
      <point x="-23" y="-16"/>
      <point x="29" y="80"/>
      <point x="92" y="80" type="curve" smooth="yes"/>
      <point x="99" y="80"/>
      <point x="106" y="77"/>
      <point x="106" y="69" type="curve" smooth="yes"/>
      <point x="106" y="66"/>
      <point x="98" y="48"/>
      <point x="98" y="30" type="curve" smooth="yes"/>
      <point x="98" y="3"/>
      <point x="120" y="-10"/>
      <point x="146" y="-10" type="curve" smooth="yes"/>
      <point x="201" y="-10"/>
      <point x="235" y="32"/>
      <point x="235" y="70" type="curve" smooth="yes"/>
      <point x="235" y="102"/>
      <point x="211" y="132"/>
      <point x="156" y="132" type="curve" smooth="yes"/>
      <point x="23" y="132"/>
      <point x="-65" y="11"/>
      <point x="-65" y="-91" type="curve" smooth="yes"/>
      <point x="-65" y="-165"/>
      <point x="-11" y="-229"/>
    </contour>
  </outline>
</glyph>
<glyph name="ordmasculine" format="2">
  <advance width="407"/>
  <unicode hex="00BA"/>
  <outline>
    <contour>
      <point x="290" y="371" type="curve" smooth="yes"/>
      <point x="396" y="371"/>
      <point x="481" y="486"/>
      <point x="481" y="603" type="curve" smooth="yes"/>
      <point x="481" y="674"/>
      <point x="425" y="714"/>
      <point x="363" y="714" type="curve" smooth="yes"/>
      <point x="281" y="714"/>
      <point x="167" y="632"/>
      <point x="167" y="482" type="curve" smooth="yes"/>
      <point x="167" y="412"/>
      <point x="221" y="371"/>
    </contour>
    <contour>
      <point x="275" y="395" type="curve" smooth="yes"/>
      <point x="252" y="395"/>
      <point x="236" y="411"/>
      <point x="236" y="452" type="curve" smooth="yes"/>
      <point x="236" y="529"/>
      <point x="306" y="689"/>
      <point x="373" y="689" type="curve" smooth="yes"/>
      <point x="400" y="689"/>
      <point x="413" y="668"/>
      <point x="413" y="634" type="curve" smooth="yes"/>
      <point x="413" y="556"/>
      <point x="334" y="395"/>
    </contour>
  </outline>
</glyph>
<glyph name="threequarters" format="2">
  <advance width="670"/>
  <unicode hex="00BE"/>
  <outline>
    <contour>
      <point x="419" y="0" type="line"/>
      <point x="494" y="0" type="line"/>
      <point x="630" y="335" type="line"/>
      <point x="607" y="335" type="line"/>
      <point x="314" y="95" type="line"/>
      <point x="299" y="58" type="line"/>
      <point x="559" y="58" type="line"/>
      <point x="619" y="157" type="line"/>
      <point x="608" y="157" type="line"/>
      <point x="591" y="137" type="line" smooth="yes"/>
      <point x="581" y="125"/>
      <point x="572" y="120"/>
      <point x="559" y="120" type="curve" smooth="yes"/>
      <point x="362" y="120" type="line"/>
      <point x="358" y="108" type="line"/>
      <point x="541" y="257" type="line"/>
      <point x="524" y="260" type="line"/>
    </contour>
    <component base="fraction" xOffset="154"/>
    <component base="threesuperior"/>
  </outline>
</glyph>
<glyph name="germandbls" format="2">
  <advance width="571"/>
  <unicode hex="00DF"/>
  <outline>
    <contour>
      <point x="-76" y="-247" type="curve" smooth="yes"/>
      <point x="-17" y="-247"/>
      <point x="21" y="-211"/>
      <point x="43" y="-178" type="curve" smooth="yes"/>
      <point x="58" y="-156"/>
      <point x="68" y="-138"/>
      <point x="86" y="-138" type="curve"/>
      <point x="293" y="545" type="line" smooth="yes"/>
      <point x="321" y="639"/>
      <point x="347" y="681"/>
      <point x="398" y="681" type="curve" smooth="yes"/>
      <point x="428" y="681"/>
      <point x="442" y="655"/>
      <point x="442" y="623" type="curve" smooth="yes"/>
      <point x="442" y="470"/>
      <point x="318" y="467"/>
      <point x="318" y="334" type="curve" smooth="yes"/>
      <point x="318" y="279"/>
      <point x="349" y="237"/>
      <point x="379" y="195" type="curve" smooth="yes"/>
      <point x="403" y="161"/>
      <point x="421" y="131"/>
      <point x="421" y="100" type="curve" smooth="yes"/>
      <point x="421" y="46"/>
      <point x="391" y="21"/>
      <point x="351" y="21" type="curve" smooth="yes"/>
      <point x="318" y="21"/>
      <point x="288" y="39"/>
      <point x="288" y="59" type="curve" smooth="yes"/>
      <point x="288" y="74"/>
      <point x="298" y="83"/>
      <point x="307" y="94" type="curve" smooth="yes"/>
      <point x="314" y="103"/>
      <point x="322" y="114"/>
      <point x="322" y="130" type="curve" smooth="yes"/>
      <point x="322" y="158"/>
      <point x="297" y="176"/>
      <point x="271" y="176" type="curve" smooth="yes"/>
      <point x="244" y="176"/>
      <point x="215" y="154"/>
      <point x="215" y="109" type="curve" smooth="yes"/>
      <point x="215" y="32"/>
      <point x="279" y="-8"/>
      <point x="355" y="-8" type="curve" smooth="yes"/>
      <point x="431" y="-8"/>
      <point x="509" y="40"/>
      <point x="509" y="132" type="curve" smooth="yes"/>
      <point x="509" y="192"/>
      <point x="485" y="221"/>
      <point x="454" y="260" type="curve" smooth="yes"/>
      <point x="429" y="292"/>
      <point x="403" y="332"/>
      <point x="403" y="365" type="curve" smooth="yes"/>
      <point x="403" y="479"/>
      <point x="542" y="480"/>
      <point x="542" y="617" type="curve" smooth="yes"/>
      <point x="542" y="669"/>
      <point x="502" y="711"/>
      <point x="405" y="711" type="curve" smooth="yes"/>
      <point x="296" y="711"/>
      <point x="230" y="655"/>
      <point x="183" y="501" type="curve" smooth="yes"/>
      <point x="-11" y="-137" type="line" smooth="yes"/>
      <point x="-27" y="-190"/>
      <point x="-42" y="-216"/>
      <point x="-63" y="-216" type="curve" smooth="yes"/>
      <point x="-76" y="-216"/>
      <point x="-85" y="-207"/>
      <point x="-85" y="-187" type="curve" smooth="yes"/>
      <point x="-85" y="-130"/>
      <point x="-111" y="-116"/>
      <point x="-140" y="-116" type="curve" smooth="yes"/>
      <point x="-168" y="-116"/>
      <point x="-194" y="-135"/>
      <point x="-194" y="-173" type="curve" smooth="yes"/>
      <point x="-194" y="-213"/>
      <point x="-135" y="-247"/>
    </contour>
    <contour>
      <point x="85" y="407" type="line"/>
      <point x="220" y="407" type="line"/>
      <point x="235" y="442" type="line"/>
      <point x="99" y="442" type="line"/>
    </contour>
  </outline>
</glyph>
<glyph name="divide" format="2">
  <advance width="570"/>
  <unicode hex="00F7"/>
  <outline>
    <contour>
      <point x="334" y="87" type="curve" smooth="yes"/>
      <point x="380" y="87"/>
      <point x="417" y="124"/>
      <point x="417" y="170" type="curve" smooth="yes"/>
      <point x="417" y="216"/>
      <point x="380" y="254"/>
      <point x="334" y="254" type="curve" smooth="yes"/>
      <point x="288" y="254"/>
      <point x="251" y="216"/>
      <point x="251" y="170" type="curve" smooth="yes"/>
      <point x="251" y="124"/>
      <point x="288" y="87"/>
    </contour>
    <contour>
      <point x="334" y="411" type="curve" smooth="yes"/>
      <point x="380" y="411"/>
      <point x="417" y="448"/>
      <point x="417" y="494" type="curve" smooth="yes"/>
      <point x="417" y="540"/>
      <point x="380" y="578"/>
      <point x="334" y="578" type="curve" smooth="yes"/>
      <point x="288" y="578"/>
      <point x="251" y="540"/>
      <point x="251" y="494" type="curve" smooth="yes"/>
      <point x="251" y="448"/>
      <point x="288" y="411"/>
    </contour>
    <component base="minus" xOffset="1"/>
  </outline>
</glyph>
<glyph name="thorn" format="2">
  <advance width="484"/>
  <unicode hex="00FE"/>
  <outline>
    <contour>
      <point x="-172" y="-250" type="line"/>
      <point x="66" y="-250" type="line"/>
      <point x="73" y="-233" type="line"/>
      <point x="31" y="-221" type="line"/>
      <point x="12" y="-214"/>
      <point x="7" y="-203"/>
      <point x="13" y="-188" type="curve" smooth="yes"/>
      <point x="162" y="182" type="line" smooth="yes"/>
      <point x="201" y="279"/>
      <point x="279" y="380"/>
      <point x="331" y="380" type="curve" smooth="yes"/>
      <point x="360" y="380"/>
      <point x="372" y="361"/>
      <point x="372" y="325" type="curve" smooth="yes"/>
      <point x="372" y="204"/>
      <point x="299" y="42"/>
      <point x="216" y="42" type="curve" smooth="yes"/>
      <point x="192" y="42"/>
      <point x="186" y="53"/>
      <point x="186" y="73" type="curve" smooth="yes"/>
      <point x="186" y="122"/>
      <point x="163" y="141"/>
      <point x="132" y="141" type="curve" smooth="yes"/>
      <point x="105" y="141"/>
      <point x="81" y="127"/>
      <point x="81" y="94" type="curve" smooth="yes"/>
      <point x="81" y="42"/>
      <point x="132" y="12"/>
      <point x="206" y="12" type="curve" smooth="yes"/>
      <point x="350" y="12"/>
      <point x="484" y="218"/>
      <point x="484" y="372" type="curve" smooth="yes"/>
      <point x="484" y="428"/>
      <point x="453" y="452"/>
      <point x="412" y="452" type="curve" smooth="yes"/>
      <point x="350" y="452"/>
      <point x="262" y="396"/>
      <point x="198" y="312" type="curve"/>
      <point x="195" y="312" type="line"/>
      <point x="287" y="499" type="line"/>
      <point x="330" y="609" type="line" smooth="yes"/>
      <point x="342" y="640"/>
      <point x="357" y="675"/>
      <point x="375" y="705" type="curve"/>
      <point x="361" y="712" type="line"/>
      <point x="306" y="689"/>
      <point x="263" y="685"/>
      <point x="193" y="673" type="curve"/>
      <point x="188" y="655" type="line"/>
      <point x="213" y="648" type="line" smooth="yes"/>
      <point x="229" y="644"/>
      <point x="241" y="635"/>
      <point x="230" y="608" type="curve" smooth="yes"/>
      <point x="-85" y="-181" type="line" smooth="yes"/>
      <point x="-94" y="-202"/>
      <point x="-107" y="-213"/>
      <point x="-131" y="-221" type="curve" smooth="yes"/>
      <point x="-165" y="-233" type="line"/>
    </contour>
  </outline>
</glyph>
<glyph name="hbar" format="2">
  <advance width="553"/>
  <unicode hex="0127"/>
  <outline>
    <contour>
      <point x="-14" y="-11" type="line"/>
      <point x="91" y="0" type="line"/>
      <point x="166" y="195"/>
      <point x="329" y="359"/>
      <point x="376" y="359" type="curve" smooth="yes"/>
      <point x="392" y="359"/>
      <point x="397" y="347"/>
      <point x="388" y="327" type="curve" smooth="yes"/>
      <point x="284" y="86" type="line" smooth="yes"/>
      <point x="261" y="33"/>
      <point x="281" y="-8"/>
      <point x="334" y="-8" type="curve" smooth="yes"/>
      <point x="387" y="-8"/>
      <point x="442" y="48"/>
      <point x="526" y="167" type="curve"/>
      <point x="506" y="180" type="line"/>
      <point x="474" y="131"/>
      <point x="417" y="63"/>
      <point x="399" y="63" type="curve" smooth="yes"/>
      <point x="385" y="63"/>
      <point x="378" y="75"/>
      <point x="389" y="100" type="curve" smooth="yes"/>
      <point x="499" y="353" type="line" smooth="yes"/>
      <point x="521" y="403"/>
      <point x="505" y="442"/>
      <point x="456" y="442" type="curve" smooth="yes"/>
      <point x="342" y="442"/>
      <point x="226" y="286"/>
      <point x="161" y="184" type="curve"/>
      <point x="159" y="184" type="line"/>
      <point x="330" y="609" type="line" smooth="yes"/>
      <point x="342" y="640"/>
      <point x="357" y="675"/>
      <point x="375" y="705" type="curve"/>
      <point x="361" y="712" type="line"/>
      <point x="306" y="689"/>
      <point x="263" y="685"/>
      <point x="193" y="673" type="curve"/>
      <point x="188" y="655" type="line"/>
      <point x="213" y="648" type="line" smooth="yes"/>
      <point x="229" y="644"/>
      <point x="240" y="634"/>
      <point x="230" y="608" type="curve" smooth="yes"/>
    </contour>
    <contour>
      <point x="139" y="526" type="line"/>
      <point x="477" y="526" type="line"/>
      <point x="496" y="573" type="line"/>
      <point x="158" y="573" type="line"/>
    </contour>
  </outline>
</glyph>
<glyph name="idotless" format="2">
  <advance width="326"/>
  <unicode hex="0131"/>
  <anchor x="246" y="470" name="top"/>
  <outline>
    <contour>
      <point x="107" y="-8" type="curve" smooth="yes"/>
      <point x="160" y="-8"/>
      <point x="215" y="48"/>
      <point x="299" y="167" type="curve"/>
      <point x="279" y="180" type="line"/>
      <point x="247" y="131"/>
      <point x="190" y="63"/>
      <point x="172" y="63" type="curve" smooth="yes"/>
      <point x="161" y="63"/>
      <point x="152" y="75"/>
      <point x="164" y="105" type="curve" smooth="yes"/>
      <point x="266" y="362" type="line" smooth="yes"/>
      <point x="285" y="411"/>
      <point x="273" y="451"/>
      <point x="223" y="451" type="curve" smooth="yes"/>
      <point x="164" y="451"/>
      <point x="114" y="395"/>
      <point x="30" y="276" type="curve"/>
      <point x="50" y="263" type="line"/>
      <point x="82" y="312"/>
      <point x="138" y="380"/>
      <point x="156" y="380" type="curve" smooth="yes"/>
      <point x="163" y="380"/>
      <point x="170" y="374"/>
      <point x="159" y="346" type="curve" smooth="yes"/>
      <point x="52" y="76" type="line" smooth="yes"/>
      <point x="33" y="28"/>
      <point x="60" y="-8"/>
    </contour>
  </outline>
</glyph>
<glyph name="Lslash" format="2">
  <advance width="702"/>
  <unicode hex="0141"/>
  <outline>
    <contour>
      <point x="24" y="202" type="line"/>
      <point x="625" y="371" type="line"/>
      <point x="648" y="428" type="line"/>
      <point x="47" y="259" type="line"/>
    </contour>
    <component base="L"/>
  </outline>
</glyph>
<glyph name="OE" format="2">
  <advance width="1109"/>
  <unicode hex="0152"/>
  <guideline x="404" y="33" angle="0"/>
  <outline>
    <contour>
      <point x="379" y="0" type="line"/>
      <point x="964" y="0" type="line"/>
      <point x="989" y="61"/>
      <point x="1024" y="121"/>
      <point x="1062" y="180" type="curve"/>
      <point x="1040" y="180" type="line"/>
      <point x="973" y="120" type="line" smooth="yes"/>
      <point x="911" y="65"/>
      <point x="852" y="33"/>
      <point x="780" y="33" type="curve" smooth="yes"/>
      <point x="706" y="33" type="line" smooth="yes"/>
      <point x="637" y="33"/>
      <point x="648" y="60"/>
      <point x="672" y="119" type="curve" smooth="yes"/>
      <point x="761" y="339" type="line"/>
      <point x="891" y="339" type="line" smooth="yes"/>
      <point x="955" y="339"/>
      <point x="968" y="312"/>
      <point x="957" y="265" type="curve" smooth="yes"/>
      <point x="947" y="217" type="line"/>
      <point x="969" y="217" type="line"/>
      <point x="1081" y="494" type="line"/>
      <point x="1059" y="494" type="line"/>
      <point x="1032" y="448" type="line" smooth="yes"/>
      <point x="1005" y="400"/>
      <point x="969" y="372"/>
      <point x="902" y="372" type="curve" smooth="yes"/>
      <point x="774" y="372" type="line"/>
      <point x="883" y="640" type="line"/>
      <point x="1016" y="640" type="line" smooth="yes"/>
      <point x="1105" y="640"/>
      <point x="1139" y="575"/>
      <point x="1140" y="496" type="curve"/>
      <point x="1162" y="496" type="line"/>
      <point x="1173" y="539"/>
      <point x="1180" y="577"/>
      <point x="1197" y="618" type="curve" smooth="yes"/>
      <point x="1204" y="636"/>
      <point x="1212" y="654"/>
      <point x="1224" y="673" type="curve"/>
      <point x="636" y="673" type="line"/>
      <point x="734" y="618" type="line"/>
      <point x="504" y="50" type="line"/>
    </contour>
    <contour>
      <point x="388" y="-8" type="curve" smooth="yes"/>
      <point x="468" y="-8"/>
      <point x="546" y="13"/>
      <point x="614" y="50" type="curve"/>
      <point x="588" y="120" type="line"/>
      <point x="540" y="64"/>
      <point x="479" y="27"/>
      <point x="409" y="27" type="curve" smooth="yes"/>
      <point x="295" y="27"/>
      <point x="237" y="107"/>
      <point x="237" y="234" type="curve" smooth="yes"/>
      <point x="237" y="408"/>
      <point x="356" y="649"/>
      <point x="534" y="649" type="curve" smooth="yes"/>
      <point x="637" y="649"/>
      <point x="687" y="616"/>
      <point x="721" y="539" type="curve"/>
      <point x="789" y="587" type="line"/>
      <point x="738" y="646"/>
      <point x="656" y="683"/>
      <point x="549" y="683" type="curve" smooth="yes"/>
      <point x="311" y="683"/>
      <point x="87" y="494"/>
      <point x="87" y="262" type="curve" smooth="yes"/>
      <point x="87" y="107"/>
      <point x="198" y="-8"/>
    </contour>
  </outline>
</glyph>
<glyph name="Tbar" format="2">
  <advance width="704"/>
  <unicode hex="0166"/>
  <outline>
    <contour>
      <point x="194" y="312" type="line"/>
      <point x="584" y="312" type="line"/>
      <point x="606" y="367" type="line"/>
      <point x="216" y="367" type="line"/>
    </contour>
    <component base="T"/>
  </outline>
</glyph>
<glyph name="florin" format="2">
  <advance width="405"/>
  <unicode hex="0192"/>
  <outline>
    <contour>
      <point x="-49" y="-247" type="curve" smooth="yes"/>
      <point x="20" y="-247"/>
      <point x="63" y="-206"/>
      <point x="95" y="-171" type="curve" smooth="yes"/>
      <point x="119" y="-144"/>
      <point x="136" y="-120"/>
      <point x="154" y="-120" type="curve"/>
      <point x="321" y="532" type="line" smooth="yes"/>
      <point x="351" y="649"/>
      <point x="369" y="684"/>
      <point x="407" y="684" type="curve" smooth="yes"/>
      <point x="431" y="684"/>
      <point x="444" y="656"/>
      <point x="455" y="626" type="curve" smooth="yes"/>
      <point x="464" y="598"/>
      <point x="478" y="569"/>
      <point x="503" y="569" type="curve" smooth="yes"/>
      <point x="531" y="569"/>
      <point x="551" y="586"/>
      <point x="551" y="620" type="curve" smooth="yes"/>
      <point x="551" y="675"/>
      <point x="493" y="711"/>
      <point x="418" y="711" type="curve" smooth="yes"/>
      <point x="284" y="711"/>
      <point x="230" y="652"/>
      <point x="189" y="489" type="curve" smooth="yes"/>
      <point x="41" y="-100" type="line" smooth="yes"/>
      <point x="19" y="-188"/>
      <point x="-16" y="-220"/>
      <point x="-41" y="-220" type="curve" smooth="yes"/>
      <point x="-54" y="-220"/>
      <point x="-68" y="-204"/>
      <point x="-68" y="-170" type="curve" smooth="yes"/>
      <point x="-68" y="-117"/>
      <point x="-99" y="-106"/>
      <point x="-126" y="-106" type="curve" smooth="yes"/>
      <point x="-156" y="-106"/>
      <point x="-179" y="-124"/>
      <point x="-179" y="-163" type="curve" smooth="yes"/>
      <point x="-179" y="-215"/>
      <point x="-124" y="-247"/>
    </contour>
    <contour>
      <point x="73" y="373" type="line"/>
      <point x="405" y="373" type="line"/>
      <point x="416" y="413" type="line"/>
      <point x="416" y="413"/>
      <point x="207" y="413"/>
      <point x="207" y="413" type="curve" smooth="yes"/>
      <point x="207" y="413"/>
      <point x="189" y="489"/>
      <point x="189" y="489" type="curve"/>
      <point x="173" y="430"/>
      <point x="144" y="413"/>
      <point x="109" y="413" type="curve" smooth="yes"/>
      <point x="86" y="413" type="line"/>
    </contour>
  </outline>
</glyph>
<glyph name="gravecomb" format="2">
  <unicode hex="0300"/>
  <guideline x="558" y="538" angle="0"/>
  <guideline x="553" y="719" angle="0"/>
  <anchor x="458" y="470" name="_top"/>
  <outline>
    <contour>
      <point x="504" y="538" type="line"/>
      <point x="526" y="549" type="line"/>
      <point x="464" y="706" type="line" smooth="yes"/>
      <point x="455" y="729"/>
      <point x="437" y="740"/>
      <point x="419" y="741" type="curve" smooth="yes"/>
      <point x="395" y="742"/>
      <point x="375" y="724"/>
      <point x="375" y="700" type="curve" smooth="yes"/>
      <point x="374" y="684"/>
      <point x="380" y="671"/>
      <point x="392" y="658" type="curve" smooth="yes"/>
    </contour>
  </outline>
</glyph>
<glyph name="brevecomb" format="2">
  <unicode hex="0306"/>
  <anchor x="405" y="470" name="_top"/>
  <outline>
    <contour>
      <point x="442" y="612" type="curve" smooth="yes"/>
      <point x="527" y="612"/>
      <point x="578" y="661"/>
      <point x="600" y="718" type="curve"/>
      <point x="641" y="718" type="line"/>
      <point x="611" y="609"/>
      <point x="523" y="531"/>
      <point x="424" y="531" type="curve" smooth="yes"/>
      <point x="332" y="531"/>
      <point x="282" y="603"/>
      <point x="329" y="718" type="curve"/>
      <point x="365" y="718" type="line"/>
      <point x="342" y="661"/>
      <point x="379" y="612"/>
    </contour>
  </outline>
</glyph>
<glyph name="caroncomb" format="2">
  <unicode hex="030C"/>
  <anchor x="395" y="470" name="_top"/>
  <outline>
    <contour>
      <point x="390" y="527" type="line"/>
      <point x="432" y="527" type="line"/>
      <point x="638" y="704" type="line"/>
      <point x="621" y="724" type="line"/>
      <point x="440" y="627" type="line"/>
      <point x="344" y="719" type="line"/>
      <point x="325" y="708" type="line"/>
    </contour>
  </outline>
</glyph>
<glyph name="Delta" format="2">
  <advance width="684"/>
  <unicode hex="0394"/>
  <outline>
    <contour>
      <point x="-84" y="0" type="line"/>
      <point x="590" y="0" type="line"/>
      <point x="307" y="673" type="line"/>
      <point x="231" y="673" type="line"/>
      <point x="187" y="631" type="line"/>
      <point x="397" y="85" type="line"/>
      <point x="9" y="85" type="line"/>
      <point x="245" y="673" type="line"/>
      <point x="193" y="673" type="line"/>
    </contour>
  </outline>
</glyph>
<glyph name="Omega" format="2">
  <advance width="925"/>
  <unicode hex="03A9"/>
  <outline>
    <contour>
      <point x="87" y="0" type="line"/>
      <point x="385" y="0" type="line"/>
      <point x="413" y="29" type="line"/>
      <point x="329" y="117"/>
      <point x="272" y="215"/>
      <point x="272" y="373" type="curve" smooth="yes"/>
      <point x="272" y="531"/>
      <point x="334" y="646"/>
      <point x="449" y="646" type="curve" smooth="yes"/>
      <point x="564" y="646"/>
      <point x="626" y="531"/>
      <point x="626" y="373" type="curve" smooth="yes"/>
      <point x="626" y="215"/>
      <point x="569" y="117"/>
      <point x="485" y="29" type="curve"/>
      <point x="513" y="0" type="line"/>
      <point x="811" y="0" type="line"/>
      <point x="844" y="245" type="line"/>
      <point x="822" y="245" type="line"/>
      <point x="810" y="194" type="line" smooth="yes"/>
      <point x="799" y="148"/>
      <point x="790" y="140"/>
      <point x="748" y="140" type="curve" smooth="yes"/>
      <point x="627" y="140" type="line"/>
      <point x="720" y="193"/>
      <point x="778" y="322"/>
      <point x="778" y="406" type="curve" smooth="yes"/>
      <point x="778" y="560"/>
      <point x="643" y="683"/>
      <point x="449" y="683" type="curve" smooth="yes"/>
      <point x="255" y="683"/>
      <point x="120" y="560"/>
      <point x="120" y="406" type="curve" smooth="yes"/>
      <point x="120" y="322"/>
      <point x="178" y="193"/>
      <point x="271" y="140" type="curve"/>
      <point x="150" y="140" type="line" smooth="yes"/>
      <point x="108" y="140"/>
      <point x="99" y="148"/>
      <point x="88" y="194" type="curve" smooth="yes"/>
      <point x="76" y="245" type="line"/>
      <point x="54" y="245" type="line"/>
    </contour>
  </outline>
</glyph>
<glyph name="emdash" format="2">
  <advance width="1140"/>
  <unicode hex="2014"/>
  <outline>
    <contour>
      <point x="1151" y="222" type="line"/>
      <point x="1151" y="278" type="line"/>
      <point x="11" y="278" type="line"/>
      <point x="11" y="222" type="line"/>
    </contour>
  </outline>
</glyph>
<glyph name="dagger" format="2">
  <advance width="546"/>
  <unicode hex="2020"/>
  <outline>
    <contour>
      <point x="92" y="-170" type="curve"/>
      <point x="136" y="-170" type="line"/>
      <point x="191" y="-38"/>
      <point x="300" y="213"/>
      <point x="370" y="253" type="curve"/>
      <point x="337" y="296"/>
      <point x="341" y="362"/>
      <point x="365" y="420" type="curve" smooth="yes"/>
      <point x="367" y="425" type="line"/>
      <point x="343" y="425" type="line"/>
      <point x="341" y="420" type="line" smooth="yes"/>
      <point x="302" y="323"/>
      <point x="223" y="267"/>
      <point x="200" y="253" type="curve"/>
      <point x="240" y="213"/>
      <point x="135" y="-62"/>
    </contour>
    <contour>
      <point x="131" y="372" type="curve" smooth="yes"/>
      <point x="156" y="372"/>
      <point x="189" y="384"/>
      <point x="220" y="394" type="curve" smooth="yes"/>
      <point x="259" y="406"/>
      <point x="299" y="417"/>
      <point x="342" y="417" type="curve" smooth="yes"/>
      <point x="360" y="417" type="line" smooth="yes"/>
      <point x="406" y="417"/>
      <point x="435" y="406"/>
      <point x="464" y="394" type="curve" smooth="yes"/>
      <point x="488" y="384"/>
      <point x="508" y="372"/>
      <point x="534" y="372" type="curve" smooth="yes"/>
      <point x="567" y="372"/>
      <point x="607" y="402"/>
      <point x="607" y="452" type="curve" smooth="yes"/>
      <point x="607" y="467"/>
      <point x="600" y="483"/>
      <point x="579" y="483" type="curve" smooth="yes"/>
      <point x="553" y="483"/>
      <point x="524" y="472"/>
      <point x="492" y="462" type="curve" smooth="yes"/>
      <point x="453" y="451"/>
      <point x="414" y="439"/>
      <point x="368" y="439" type="curve" smooth="yes"/>
      <point x="350" y="439" type="line" smooth="yes"/>
      <point x="307" y="439"/>
      <point x="276" y="450"/>
      <point x="248" y="462" type="curve" smooth="yes"/>
      <point x="224" y="472"/>
      <point x="201" y="483"/>
      <point x="176" y="483" type="curve" smooth="yes"/>
      <point x="146" y="483"/>
      <point x="105" y="450"/>
      <point x="105" y="402" type="curve" smooth="yes"/>
      <point x="105" y="387"/>
      <point x="111" y="372"/>
    </contour>
    <contour>
      <point x="343" y="425" type="line"/>
      <point x="367" y="425" type="line"/>
      <point x="372" y="439" type="line" smooth="yes"/>
      <point x="393" y="490"/>
      <point x="424" y="531"/>
      <point x="450" y="572" type="curve" smooth="yes"/>
      <point x="474" y="602"/>
      <point x="516" y="660"/>
      <point x="516" y="688" type="curve" smooth="yes"/>
      <point x="516" y="710"/>
      <point x="496" y="719"/>
      <point x="474" y="719" type="curve" smooth="yes"/>
      <point x="448" y="719"/>
      <point x="411" y="705"/>
      <point x="396" y="667" type="curve" smooth="yes"/>
      <point x="383" y="637"/>
      <point x="382" y="604"/>
      <point x="380" y="572" type="curve" smooth="yes"/>
      <point x="377" y="531"/>
      <point x="369" y="490"/>
      <point x="348" y="439" type="curve" smooth="yes"/>
    </contour>
  </outline>
</glyph>
<glyph name="daggerdbl" format="2">
  <advance width="542"/>
  <unicode hex="2021"/>
  <outline>
    <contour>
      <point x="96" y="-213" type="curve" smooth="yes"/>
      <point x="124" y="-213"/>
      <point x="159" y="-199"/>
      <point x="175" y="-161" type="curve" smooth="yes"/>
      <point x="187" y="-131"/>
      <point x="188" y="-99"/>
      <point x="191" y="-66" type="curve" smooth="yes"/>
      <point x="195" y="-29"/>
      <point x="197" y="8"/>
      <point x="215" y="53" type="curve"/>
      <point x="221" y="67" type="line"/>
      <point x="228" y="67" type="line" smooth="yes"/>
      <point x="269" y="67"/>
      <point x="295" y="54"/>
      <point x="322" y="44" type="curve"/>
      <point x="346" y="34"/>
      <point x="366" y="23"/>
      <point x="392" y="23" type="curve" smooth="yes"/>
      <point x="423" y="23"/>
      <point x="464" y="55"/>
      <point x="464" y="103" type="curve" smooth="yes"/>
      <point x="464" y="119"/>
      <point x="458" y="134"/>
      <point x="437" y="134" type="curve" smooth="yes"/>
      <point x="411" y="134"/>
      <point x="381" y="122"/>
      <point x="349" y="112" type="curve" smooth="yes"/>
      <point x="314" y="101"/>
      <point x="278" y="89"/>
      <point x="237" y="89" type="curve" smooth="yes"/>
      <point x="230" y="89" type="line"/>
      <point x="269" y="184"/>
      <point x="346" y="239"/>
      <point x="369" y="253" type="curve"/>
      <point x="337" y="294"/>
      <point x="340" y="362"/>
      <point x="362" y="417" type="curve"/>
      <point x="370" y="417" type="line" smooth="yes"/>
      <point x="410" y="417"/>
      <point x="436" y="405"/>
      <point x="463" y="394" type="curve" smooth="yes"/>
      <point x="487" y="384"/>
      <point x="507" y="372"/>
      <point x="533" y="372" type="curve" smooth="yes"/>
      <point x="566" y="372"/>
      <point x="606" y="405"/>
      <point x="606" y="452" type="curve" smooth="yes"/>
      <point x="606" y="467"/>
      <point x="599" y="483"/>
      <point x="578" y="483" type="curve" smooth="yes"/>
      <point x="552" y="483"/>
      <point x="522" y="472"/>
      <point x="490" y="462" type="curve" smooth="yes"/>
      <point x="455" y="452"/>
      <point x="420" y="439"/>
      <point x="379" y="439" type="curve" smooth="yes"/>
      <point x="371" y="439" type="line"/>
      <point x="373" y="444" type="line" smooth="yes"/>
      <point x="393" y="493"/>
      <point x="423" y="532"/>
      <point x="449" y="572" type="curve" smooth="yes"/>
      <point x="470" y="605"/>
      <point x="497" y="637"/>
      <point x="509" y="667" type="curve" smooth="yes"/>
      <point x="522" y="702"/>
      <point x="506" y="719"/>
      <point x="472" y="719" type="curve" smooth="yes"/>
      <point x="441" y="719"/>
      <point x="410" y="705"/>
      <point x="394" y="667" type="curve" smooth="yes"/>
      <point x="382" y="637"/>
      <point x="383" y="605"/>
      <point x="379" y="572" type="curve" smooth="yes"/>
      <point x="374" y="532"/>
      <point x="369" y="493"/>
      <point x="349" y="444" type="curve" smooth="yes"/>
      <point x="347" y="439" type="line"/>
      <point x="339" y="439" type="line" smooth="yes"/>
      <point x="300" y="439"/>
      <point x="272" y="451"/>
      <point x="246" y="462" type="curve" smooth="yes"/>
      <point x="222" y="472"/>
      <point x="200" y="483"/>
      <point x="175" y="483" type="curve" smooth="yes"/>
      <point x="146" y="483"/>
      <point x="104" y="451"/>
      <point x="104" y="403" type="curve" smooth="yes"/>
      <point x="104" y="388"/>
      <point x="110" y="372"/>
      <point x="130" y="372" type="curve" smooth="yes"/>
      <point x="155" y="372"/>
      <point x="188" y="384"/>
      <point x="219" y="394" type="curve" smooth="yes"/>
      <point x="254" y="405"/>
      <point x="291" y="417"/>
      <point x="330" y="417" type="curve" smooth="yes"/>
      <point x="338" y="417" type="line"/>
      <point x="299" y="322"/>
      <point x="222" y="267"/>
      <point x="199" y="253" type="curve"/>
      <point x="231" y="212"/>
      <point x="228" y="144"/>
      <point x="206" y="89" type="curve"/>
      <point x="198" y="89" type="line" smooth="yes"/>
      <point x="160" y="89"/>
      <point x="132" y="101"/>
      <point x="105" y="112" type="curve" smooth="yes"/>
      <point x="82" y="122"/>
      <point x="59" y="134"/>
      <point x="34" y="134" type="curve" smooth="yes"/>
      <point x="4" y="134"/>
      <point x="-37" y="100"/>
      <point x="-37" y="53" type="curve" smooth="yes"/>
      <point x="-37" y="38"/>
      <point x="-31" y="23"/>
      <point x="-11" y="23" type="curve" smooth="yes"/>
      <point x="14" y="23"/>
      <point x="46" y="34"/>
      <point x="78" y="44" type="curve" smooth="yes"/>
      <point x="112" y="55"/>
      <point x="150" y="67"/>
      <point x="189" y="67" type="curve" smooth="yes"/>
      <point x="197" y="67" type="line"/>
      <point x="192" y="54" type="line"/>
      <point x="173" y="9"/>
      <point x="146" y="-28"/>
      <point x="121" y="-66" type="curve" smooth="yes"/>
      <point x="96" y="-104"/>
      <point x="55" y="-152"/>
      <point x="55" y="-182" type="curve" smooth="yes"/>
      <point x="55" y="-204"/>
      <point x="76" y="-213"/>
    </contour>
  </outline>
</glyph>
<glyph name="perthousand" format="2">
  <advance width="962"/>
  <unicode hex="2030"/>
  <outline>
    <contour>
      <point x="731" y="-8" type="curve" smooth="yes"/>
      <point x="810" y="-8"/>
      <point x="863" y="62"/>
      <point x="896" y="145" type="curve" smooth="yes"/>
      <point x="909" y="178"/>
      <point x="920" y="212"/>
      <point x="920" y="241" type="curve" smooth="yes"/>
      <point x="920" y="292"/>
      <point x="891" y="331"/>
      <point x="814" y="331" type="curve" smooth="yes"/>
      <point x="734" y="331"/>
      <point x="681" y="262"/>
      <point x="647" y="176" type="curve" smooth="yes"/>
      <point x="634" y="144"/>
      <point x="624" y="111"/>
      <point x="624" y="82" type="curve" smooth="yes"/>
      <point x="624" y="27"/>
      <point x="650" y="-8"/>
    </contour>
    <contour>
      <point x="717" y="15" type="curve" smooth="yes"/>
      <point x="696" y="15"/>
      <point x="689" y="30"/>
      <point x="689" y="53" type="curve" smooth="yes"/>
      <point x="689" y="84"/>
      <point x="704" y="130"/>
      <point x="717" y="164" type="curve" smooth="yes"/>
      <point x="745" y="239"/>
      <point x="787" y="307"/>
      <point x="825" y="307" type="curve" smooth="yes"/>
      <point x="846" y="307"/>
      <point x="853" y="291"/>
      <point x="853" y="268" type="curve" smooth="yes"/>
      <point x="853" y="236"/>
      <point x="838" y="189"/>
      <point x="825" y="155" type="curve" smooth="yes"/>
      <point x="797" y="80"/>
      <point x="755" y="15"/>
    </contour>
    <component base="percent"/>
  </outline>
</glyph>
<glyph name="infinity" format="2">
  <advance width="782"/>
  <unicode hex="221E"/>
  <outline>
    <contour>
      <point x="271" y="142" type="curve" smooth="yes"/>
      <point x="376" y="142"/>
      <point x="426" y="225"/>
      <point x="476" y="298" type="curve" smooth="yes"/>
      <point x="520" y="362"/>
      <point x="573" y="437"/>
      <point x="651" y="437" type="curve" smooth="yes"/>
      <point x="714" y="437"/>
      <point x="767" y="402"/>
      <point x="767" y="338" type="curve" smooth="yes"/>
      <point x="767" y="271"/>
      <point x="722" y="225"/>
      <point x="626" y="225" type="curve" smooth="yes"/>
      <point x="565" y="225"/>
      <point x="504" y="255"/>
      <point x="470" y="316" type="curve"/>
      <point x="430" y="290" type="line"/>
      <point x="458" y="215"/>
      <point x="534" y="142"/>
      <point x="630" y="142" type="curve" smooth="yes"/>
      <point x="735" y="142"/>
      <point x="800" y="226"/>
      <point x="800" y="328" type="curve" smooth="yes"/>
      <point x="800" y="437"/>
      <point x="721" y="521"/>
      <point x="607" y="521" type="curve" smooth="yes"/>
      <point x="501" y="521"/>
      <point x="452" y="440"/>
      <point x="402" y="366" type="curve" smooth="yes"/>
      <point x="358" y="302"/>
      <point x="306" y="226"/>
      <point x="227" y="226" type="curve" smooth="yes"/>
      <point x="164" y="226"/>
      <point x="111" y="261"/>
      <point x="111" y="325" type="curve" smooth="yes"/>
      <point x="111" y="392"/>
      <point x="156" y="438"/>
      <point x="252" y="438" type="curve" smooth="yes"/>
      <point x="313" y="438"/>
      <point x="374" y="408"/>
      <point x="408" y="347" type="curve"/>
      <point x="448" y="373" type="line"/>
      <point x="420" y="448"/>
      <point x="344" y="521"/>
      <point x="248" y="521" type="curve" smooth="yes"/>
      <point x="143" y="521"/>
      <point x="78" y="437"/>
      <point x="78" y="335" type="curve" smooth="yes"/>
      <point x="78" y="226"/>
      <point x="157" y="142"/>
    </contour>
  </outline>
</glyph>
<glyph name="one.onum" format="2">
  <advance width="402"/>
  <unicode hex="F644"/>
  <outline>
    <contour>
      <point x="-59" y="0" type="line"/>
      <point x="239" y="0" type="line"/>
      <point x="247" y="21" type="line"/>
      <point x="203" y="31" type="line" smooth="yes"/>
      <point x="163" y="41"/>
      <point x="161" y="53"/>
      <point x="177" y="92" type="curve" smooth="yes"/>
      <point x="281" y="349" type="line" smooth="yes"/>
      <point x="297" y="389"/>
      <point x="309" y="401"/>
      <point x="356" y="410" type="curve" smooth="yes"/>
      <point x="409" y="421" type="line"/>
      <point x="417" y="442" type="line"/>
      <point x="119" y="442" type="line"/>
      <point x="111" y="421" type="line"/>
      <point x="154" y="410" type="line" smooth="yes"/>
      <point x="195" y="401"/>
      <point x="197" y="389"/>
      <point x="181" y="349" type="curve" smooth="yes"/>
      <point x="77" y="92" type="line" smooth="yes"/>
      <point x="61" y="53"/>
      <point x="49" y="41"/>
      <point x="1" y="31" type="curve" smooth="yes"/>
      <point x="-51" y="21" type="line"/>
    </contour>
  </outline>
</glyph>
<glyph name="f_f_i" format="2">
  <advance width="926"/>
  <unicode hex="FB03"/>
  <anchor x="248" y="0" name="caret_1"/>
  <anchor x="528" y="0" name="caret_2"/>
  <outline>
    <contour>
      <point x="-76" y="-247" type="curve" smooth="yes"/>
      <point x="-17" y="-247"/>
      <point x="21" y="-211"/>
      <point x="43" y="-178" type="curve" smooth="yes"/>
      <point x="58" y="-156"/>
      <point x="68" y="-138"/>
      <point x="86" y="-138" type="curve"/>
      <point x="284" y="516" type="line" smooth="yes"/>
      <point x="320" y="635"/>
      <point x="363" y="677"/>
      <point x="441" y="677" type="curve" smooth="yes"/>
      <point x="498" y="677"/>
      <point x="528" y="628"/>
      <point x="535" y="592" type="curve"/>
      <point x="592" y="653" type="line"/>
      <point x="565" y="683"/>
      <point x="537" y="711"/>
      <point x="440" y="711" type="curve" smooth="yes"/>
      <point x="315" y="711"/>
      <point x="231" y="657"/>
      <point x="182" y="497" type="curve" smooth="yes"/>
      <point x="-11" y="-137" type="line" smooth="yes"/>
      <point x="-27" y="-190"/>
      <point x="-42" y="-216"/>
      <point x="-63" y="-216" type="curve" smooth="yes"/>
      <point x="-76" y="-216"/>
      <point x="-85" y="-207"/>
      <point x="-85" y="-187" type="curve" smooth="yes"/>
      <point x="-85" y="-130"/>
      <point x="-111" y="-116"/>
      <point x="-140" y="-116" type="curve" smooth="yes"/>
      <point x="-168" y="-116"/>
      <point x="-194" y="-135"/>
      <point x="-194" y="-173" type="curve" smooth="yes"/>
      <point x="-194" y="-213"/>
      <point x="-135" y="-247"/>
    </contour>
    <contour>
      <point x="85" y="407" type="line"/>
      <point x="493" y="407" type="line"/>
      <point x="508" y="442" type="line"/>
      <point x="99" y="442" type="line"/>
    </contour>
    <component base="fi" xOffset="311"/>
  </outline>
</glyph>
<glyph name="caroncomb.alt" format="2">
  <outline>
    <contour>
      <point x="362" y="476" type="line"/>
      <point x="496" y="632" type="line" smooth="yes"/>
      <point x="507" y="644"/>
      <point x="511" y="657"/>
      <point x="512" y="668" type="curve" smooth="yes"/>
      <point x="513" y="692"/>
      <point x="494" y="713"/>
      <point x="470" y="713" type="curve" smooth="yes"/>
      <point x="450" y="714"/>
      <point x="434" y="702"/>
      <point x="422" y="675" type="curve" smooth="yes"/>
      <point x="340" y="488" type="line"/>
    </contour>
  </outline>
</glyph>
<glyph name="circumflexcomb.case" format="2">
  <anchor x="494" y="690" name="_topcase"/>
  <outline>
    <contour>
      <point x="363" y="712" type="line"/>
      <point x="525" y="786" type="line"/>
      <point x="634" y="710" type="line"/>
      <point x="663" y="722" type="line"/>
      <point x="581" y="877" type="line"/>
      <point x="539" y="877" type="line"/>
      <point x="346" y="732" type="line"/>
    </contour>
  </outline>
</glyph>
<glyph name="eng.sc" format="2">
  <advance width="722"/>
  <outline>
    <contour>
      <point x="352" y="-187" type="curve" smooth="yes"/>
      <point x="400" y="-187"/>
      <point x="428" y="-169"/>
      <point x="448" y="-151" type="curve" smooth="yes"/>
      <point x="459" y="-141"/>
      <point x="472" y="-132"/>
      <point x="480" y="-132" type="curve"/>
      <point x="726" y="476" type="line" smooth="yes"/>
      <point x="737" y="504"/>
      <point x="760" y="516"/>
      <point x="789" y="522" type="curve" smooth="yes"/>
      <point x="842" y="533" type="line"/>
      <point x="849" y="552" type="line"/>
      <point x="616" y="552" type="line"/>
      <point x="609" y="533" type="line"/>
      <point x="668" y="520" type="line" smooth="yes"/>
      <point x="692" y="515"/>
      <point x="705" y="502"/>
      <point x="695" y="477" type="curve" smooth="yes"/>
      <point x="568" y="157" type="line"/>
      <point x="356" y="552" type="line"/>
      <point x="190" y="552" type="line"/>
      <point x="182" y="533" type="line"/>
      <point x="223" y="523" type="line" smooth="yes"/>
      <point x="253" y="516"/>
      <point x="258" y="511"/>
      <point x="245" y="477" type="curve" smooth="yes"/>
      <point x="82" y="75" type="line" smooth="yes"/>
      <point x="71" y="47"/>
      <point x="49" y="36"/>
      <point x="20" y="30" type="curve" smooth="yes"/>
      <point x="-33" y="19" type="line"/>
      <point x="-41" y="0" type="line"/>
      <point x="192" y="0" type="line"/>
      <point x="200" y="19" type="line"/>
      <point x="141" y="32" type="line" smooth="yes"/>
      <point x="116" y="37"/>
      <point x="104" y="50"/>
      <point x="114" y="75" type="curve" smooth="yes"/>
      <point x="272" y="465" type="line"/>
      <point x="508" y="13" type="line"/>
      <point x="475" y="-65" type="line" smooth="yes"/>
      <point x="445" y="-135"/>
      <point x="398" y="-154"/>
      <point x="369" y="-154" type="curve" smooth="yes"/>
      <point x="357" y="-154"/>
      <point x="349" y="-149"/>
      <point x="349" y="-140" type="curve" smooth="yes"/>
      <point x="349" y="-134"/>
      <point x="359" y="-127"/>
      <point x="369" y="-118" type="curve"/>
      <point x="380" y="-107"/>
      <point x="395" y="-93"/>
      <point x="395" y="-71" type="curve" smooth="yes"/>
      <point x="395" y="-35"/>
      <point x="368" y="-19"/>
      <point x="337" y="-19" type="curve" smooth="yes"/>
      <point x="296" y="-19"/>
      <point x="255" y="-41"/>
      <point x="255" y="-107" type="curve" smooth="yes"/>
      <point x="255" y="-160"/>
      <point x="305" y="-187"/>
    </contour>
  </outline>
</glyph>
<glyph name="f.sc" format="2">
  <advance width="574"/>
  <outline>
    <contour>
      <point x="-41" y="0" type="line"/>
      <point x="265" y="0" type="line"/>
      <point x="273" y="19" type="line"/>
      <point x="228" y="28" type="line" smooth="yes"/>
      <point x="194" y="35"/>
      <point x="190" y="42"/>
      <point x="204" y="76" type="curve" smooth="yes"/>
      <point x="279" y="261" type="line"/>
      <point x="389" y="261" type="line" smooth="yes"/>
      <point x="444" y="261"/>
      <point x="449" y="233"/>
      <point x="442" y="202" type="curve" smooth="yes"/>
      <point x="433" y="162" type="line"/>
      <point x="452" y="161" type="line"/>
      <point x="544" y="389" type="line"/>
      <point x="525" y="389" type="line"/>
      <point x="503" y="351" type="line" smooth="yes"/>
      <point x="484" y="318"/>
      <point x="455" y="289"/>
      <point x="397" y="289" type="curve" smooth="yes"/>
      <point x="289" y="289" type="line"/>
      <point x="385" y="523" type="line"/>
      <point x="486" y="523" type="line" smooth="yes"/>
      <point x="562" y="523"/>
      <point x="596" y="476"/>
      <point x="599" y="407" type="curve"/>
      <point x="618" y="407" type="line"/>
      <point x="628" y="445"/>
      <point x="634" y="475"/>
      <point x="647" y="507" type="curve" smooth="yes"/>
      <point x="653" y="522"/>
      <point x="659" y="536"/>
      <point x="669" y="552" type="curve"/>
      <point x="182" y="552" type="line"/>
      <point x="175" y="533" type="line"/>
      <point x="213" y="524" type="line" smooth="yes"/>
      <point x="247" y="516"/>
      <point x="251" y="510"/>
      <point x="237" y="476" type="curve" smooth="yes"/>
      <point x="76" y="77" type="line" smooth="yes"/>
      <point x="61" y="42"/>
      <point x="52" y="36"/>
      <point x="12" y="28" type="curve" smooth="yes"/>
      <point x="-33" y="19" type="line"/>
    </contour>
  </outline>
</glyph>
<glyph name="f_h" format="2">
  <advance width="864"/>
  <anchor x="213" y="0" name="caret_1"/>
  <outline>
    <contour>
      <point x="-76" y="-247" type="curve" smooth="yes"/>
      <point x="-17" y="-247"/>
      <point x="21" y="-211"/>
      <point x="43" y="-178" type="curve" smooth="yes"/>
      <point x="58" y="-156"/>
      <point x="68" y="-138"/>
      <point x="86" y="-138" type="curve"/>
      <point x="284" y="516" type="line" smooth="yes"/>
      <point x="320" y="635"/>
      <point x="363" y="677"/>
      <point x="441" y="677" type="curve" smooth="yes"/>
      <point x="498" y="677"/>
      <point x="528" y="628"/>
      <point x="535" y="592" type="curve"/>
      <point x="592" y="653" type="line"/>
      <point x="565" y="683"/>
      <point x="537" y="711"/>
      <point x="440" y="711" type="curve" smooth="yes"/>
      <point x="315" y="711"/>
      <point x="231" y="657"/>
      <point x="182" y="497" type="curve" smooth="yes"/>
      <point x="-11" y="-137" type="line" smooth="yes"/>
      <point x="-27" y="-190"/>
      <point x="-42" y="-216"/>
      <point x="-63" y="-216" type="curve" smooth="yes"/>
      <point x="-76" y="-216"/>
      <point x="-85" y="-207"/>
      <point x="-85" y="-187" type="curve" smooth="yes"/>
      <point x="-85" y="-130"/>
      <point x="-111" y="-116"/>
      <point x="-140" y="-116" type="curve" smooth="yes"/>
      <point x="-168" y="-116"/>
      <point x="-194" y="-135"/>
      <point x="-194" y="-173" type="curve" smooth="yes"/>
      <point x="-194" y="-213"/>
      <point x="-135" y="-247"/>
    </contour>
    <contour>
      <point x="85" y="407" type="line"/>
      <point x="493" y="407" type="line"/>
      <point x="508" y="442" type="line"/>
      <point x="99" y="442" type="line"/>
    </contour>
    <contour>
      <point x="297" y="-11" type="line"/>
      <point x="402" y="0" type="line"/>
      <point x="477" y="195"/>
      <point x="644" y="368"/>
      <point x="691" y="368" type="curve" smooth="yes"/>
      <point x="707" y="368"/>
      <point x="712" y="356"/>
      <point x="703" y="336" type="curve" smooth="yes"/>
      <point x="595" y="86" type="line" smooth="yes"/>
      <point x="572" y="33"/>
      <point x="592" y="-8"/>
      <point x="645" y="-8" type="curve" smooth="yes"/>
      <point x="698" y="-8"/>
      <point x="753" y="48"/>
      <point x="837" y="167" type="curve"/>
      <point x="817" y="180" type="line"/>
      <point x="785" y="131"/>
      <point x="728" y="63"/>
      <point x="710" y="63" type="curve" smooth="yes"/>
      <point x="696" y="63"/>
      <point x="689" y="75"/>
      <point x="700" y="100" type="curve" smooth="yes"/>
      <point x="814" y="362" type="line" smooth="yes"/>
      <point x="836" y="412"/>
      <point x="820" y="451"/>
      <point x="771" y="451" type="curve" smooth="yes"/>
      <point x="657" y="451"/>
      <point x="537" y="286"/>
      <point x="472" y="184" type="curve"/>
      <point x="470" y="184" type="line"/>
      <point x="641" y="609" type="line" smooth="yes"/>
      <point x="653" y="640"/>
      <point x="668" y="675"/>
      <point x="686" y="705" type="curve"/>
      <point x="672" y="712" type="line"/>
      <point x="617" y="689"/>
      <point x="574" y="685"/>
      <point x="504" y="673" type="curve"/>
      <point x="524" y="648" type="line" smooth="yes"/>
      <point x="540" y="644"/>
      <point x="551" y="634"/>
      <point x="541" y="608" type="curve" smooth="yes"/>
    </contour>
  </outline>
</glyph>
<glyph name="g.sc" format="2">
  <advance width="749"/>
  <anchor x="518" y="566" name="top"/>
  <outline>
    <contour>
      <point x="344" y="-10" type="curve" smooth="yes"/>
      <point x="405" y="-10"/>
      <point x="458" y="5"/>
      <point x="492" y="15" type="curve" smooth="yes"/>
      <point x="512" y="21"/>
      <point x="531" y="29"/>
      <point x="552" y="29" type="curve" smooth="yes"/>
      <point x="573" y="29"/>
      <point x="576" y="27"/>
      <point x="592" y="23" type="curve"/>
      <point x="593" y="25" type="line"/>
      <point x="656" y="179" type="line" smooth="yes"/>
      <point x="671" y="213"/>
      <point x="678" y="220"/>
      <point x="714" y="228" type="curve" smooth="yes"/>
      <point x="755" y="237" type="line"/>
      <point x="763" y="256" type="line"/>
      <point x="474" y="256" type="line"/>
      <point x="466" y="237" type="line"/>
      <point x="505" y="228" type="line" smooth="yes"/>
      <point x="540" y="220"/>
      <point x="543" y="214"/>
      <point x="529" y="180" type="curve" smooth="yes"/>
      <point x="477" y="52" type="line"/>
      <point x="452" y="31"/>
      <point x="412" y="19"/>
      <point x="378" y="19" type="curve" smooth="yes"/>
      <point x="264" y="19"/>
      <point x="213" y="82"/>
      <point x="213" y="180" type="curve" smooth="yes"/>
      <point x="213" y="380"/>
      <point x="346" y="528"/>
      <point x="495" y="528" type="curve" smooth="yes"/>
      <point x="602" y="528"/>
      <point x="663" y="474"/>
      <point x="679" y="383" type="curve"/>
      <point x="711" y="383" type="line"/>
      <point x="709" y="399"/>
      <point x="707" y="417"/>
      <point x="707" y="436" type="curve" smooth="yes"/>
      <point x="707" y="466"/>
      <point x="711" y="498"/>
      <point x="727" y="521" type="curve"/>
      <point x="723" y="524" type="line"/>
      <point x="712" y="521"/>
      <point x="705" y="519"/>
      <point x="694" y="519" type="curve" smooth="yes"/>
      <point x="671" y="519"/>
      <point x="655" y="527"/>
      <point x="635" y="536" type="curve" smooth="yes"/>
      <point x="613" y="546"/>
      <point x="582" y="561"/>
      <point x="506" y="561" type="curve" smooth="yes"/>
      <point x="237" y="561"/>
      <point x="76" y="387"/>
      <point x="76" y="205" type="curve" smooth="yes"/>
      <point x="76" y="100"/>
      <point x="146" y="-10"/>
    </contour>
  </outline>
</glyph>
<glyph name="hbar.sc" format="2">
  <advance width="775"/>
  <outline>
    <contour>
      <point x="141" y="389" type="line"/>
      <point x="787" y="389" type="line"/>
      <point x="806" y="438" type="line"/>
      <point x="160" y="438" type="line"/>
    </contour>
    <component base="h.sc"/>
  </outline>
</glyph>
<glyph name="j.sc" format="2">
  <advance width="405"/>
  <anchor x="378" y="566" name="top"/>
  <outline>
    <contour>
      <point x="-41" y="-177" type="curve" smooth="yes"/>
      <point x="12" y="-177"/>
      <point x="81" y="-150"/>
      <point x="130" y="-102" type="curve" smooth="yes"/>
      <point x="154" y="-78"/>
      <point x="174" y="-60"/>
      <point x="190" y="-60" type="curve" smooth="yes"/>
      <point x="192" y="-60" type="line"/>
      <point x="409" y="476" type="line" smooth="yes"/>
      <point x="423" y="510"/>
      <point x="431" y="516"/>
      <point x="472" y="524" type="curve" smooth="yes"/>
      <point x="517" y="533" type="line"/>
      <point x="524" y="552" type="line"/>
      <point x="225" y="552" type="line"/>
      <point x="218" y="533" type="line"/>
      <point x="256" y="524" type="line" smooth="yes"/>
      <point x="290" y="516"/>
      <point x="294" y="510"/>
      <point x="280" y="476" type="curve" smooth="yes"/>
      <point x="69" y="-45" type="line" smooth="yes"/>
      <point x="41" y="-114"/>
      <point x="6" y="-138"/>
      <point x="-10" y="-138" type="curve" smooth="yes"/>
      <point x="-21" y="-138"/>
      <point x="-37" y="-138"/>
      <point x="-37" y="-127" type="curve" smooth="yes"/>
      <point x="-37" y="-122"/>
      <point x="-28" y="-116"/>
      <point x="-20" y="-109" type="curve" smooth="yes"/>
      <point x="-8" y="-98"/>
      <point x="5" y="-84"/>
      <point x="5" y="-61" type="curve" smooth="yes"/>
      <point x="5" y="-26"/>
      <point x="-22" y="-10"/>
      <point x="-52" y="-10" type="curve" smooth="yes"/>
      <point x="-93" y="-10"/>
      <point x="-134" y="-31"/>
      <point x="-134" y="-98" type="curve" smooth="yes"/>
      <point x="-134" y="-150"/>
      <point x="-85" y="-177"/>
    </contour>
  </outline>
</glyph>
<glyph name="lslash.sc" format="2">
  <advance width="631"/>
  <outline>
    <contour>
      <point x="26" y="165" type="line"/>
      <point x="543" y="306" type="line"/>
      <point x="562" y="354" type="line"/>
      <point x="45" y="213" type="line"/>
    </contour>
    <component base="l.sc" xOffset="11"/>
  </outline>
</glyph>
<glyph name="m.sc" format="2">
  <advance width="861"/>
  <outline>
    <contour>
      <point x="308" y="-4" type="line"/>
      <point x="322" y="-4" type="line"/>
      <point x="706" y="460" type="line"/>
      <point x="570" y="81" type="line" smooth="yes"/>
      <point x="556" y="42"/>
      <point x="544" y="37"/>
      <point x="498" y="27" type="curve" smooth="yes"/>
      <point x="455" y="18" type="line"/>
      <point x="447" y="0" type="line"/>
      <point x="748" y="0" type="line"/>
      <point x="756" y="19" type="line"/>
      <point x="718" y="28" type="line" smooth="yes"/>
      <point x="684" y="36"/>
      <point x="680" y="42"/>
      <point x="693" y="76" type="curve" smooth="yes"/>
      <point x="838" y="478" type="line" smooth="yes"/>
      <point x="850" y="511"/>
      <point x="860" y="516"/>
      <point x="901" y="524" type="curve" smooth="yes"/>
      <point x="948" y="533" type="line"/>
      <point x="955" y="552" type="line"/>
      <point x="743" y="552" type="line"/>
      <point x="421" y="161" type="line"/>
      <point x="410" y="552" type="line"/>
      <point x="205" y="552" type="line"/>
      <point x="197" y="532" type="line"/>
      <point x="236" y="523" type="line" smooth="yes"/>
      <point x="270" y="515"/>
      <point x="276" y="512"/>
      <point x="261" y="477" type="curve" smooth="yes"/>
      <point x="83" y="76" type="line" smooth="yes"/>
      <point x="70" y="48"/>
      <point x="49" y="36"/>
      <point x="21" y="30" type="curve" smooth="yes"/>
      <point x="-32" y="19" type="line"/>
      <point x="-40" y="0" type="line"/>
      <point x="192" y="0" type="line"/>
      <point x="200" y="19" type="line"/>
      <point x="141" y="32" type="line" smooth="yes"/>
      <point x="116" y="37"/>
      <point x="103" y="51"/>
      <point x="115" y="76" type="curve" smooth="yes"/>
      <point x="294" y="472" type="line"/>
    </contour>
  </outline>
</glyph>
<glyph name="p.sc" format="2">
  <advance width="588"/>
  <outline>
    <contour>
      <point x="-41" y="0" type="line"/>
      <point x="268" y="0" type="line"/>
      <point x="276" y="19" type="line"/>
      <point x="228" y="28" type="line" smooth="yes"/>
      <point x="193" y="34"/>
      <point x="191" y="43"/>
      <point x="204" y="76" type="curve" smooth="yes"/>
      <point x="385" y="523" type="line"/>
      <point x="406" y="523" type="line" smooth="yes"/>
      <point x="473" y="523"/>
      <point x="514" y="500"/>
      <point x="514" y="439" type="curve" smooth="yes"/>
      <point x="514" y="333"/>
      <point x="418" y="230"/>
      <point x="294" y="223" type="curve"/>
      <point x="293" y="217" type="line"/>
      <point x="307" y="213"/>
      <point x="324" y="210"/>
      <point x="343" y="210" type="curve" smooth="yes"/>
      <point x="476" y="210"/>
      <point x="641" y="297"/>
      <point x="641" y="423" type="curve" smooth="yes"/>
      <point x="641" y="512"/>
      <point x="556" y="552"/>
      <point x="428" y="552" type="curve" smooth="yes"/>
      <point x="183" y="552" type="line"/>
      <point x="175" y="533" type="line"/>
      <point x="216" y="523" type="line" smooth="yes"/>
      <point x="245" y="516"/>
      <point x="251" y="511"/>
      <point x="238" y="478" type="curve" smooth="yes"/>
      <point x="75" y="77" type="line" smooth="yes"/>
      <point x="61" y="42"/>
      <point x="52" y="36"/>
      <point x="11" y="28" type="curve" smooth="yes"/>
      <point x="-33" y="19" type="line"/>
    </contour>
  </outline>
</glyph>
<glyph name="thorn.sc" format="2">
  <advance width="586"/>
  <outline>
    <contour>
      <point x="-41" y="0" type="line"/>
      <point x="258" y="0" type="line"/>
      <point x="267" y="19" type="line"/>
      <point x="228" y="28" type="line" smooth="yes"/>
      <point x="193" y="36"/>
      <point x="190" y="42"/>
      <point x="204" y="76" type="curve" smooth="yes"/>
      <point x="345" y="422" type="line"/>
      <point x="375" y="422" type="line" smooth="yes"/>
      <point x="441" y="422"/>
      <point x="482" y="400"/>
      <point x="482" y="339" type="curve" smooth="yes"/>
      <point x="482" y="233"/>
      <point x="387" y="130"/>
      <point x="263" y="122" type="curve"/>
      <point x="262" y="116" type="line"/>
      <point x="275" y="112"/>
      <point x="293" y="110"/>
      <point x="312" y="110" type="curve" smooth="yes"/>
      <point x="445" y="110"/>
      <point x="609" y="196"/>
      <point x="609" y="323" type="curve" smooth="yes"/>
      <point x="609" y="412"/>
      <point x="524" y="451"/>
      <point x="397" y="451" type="curve" smooth="yes"/>
      <point x="356" y="451" type="line"/>
      <point x="366" y="476" type="line" smooth="yes"/>
      <point x="379" y="510"/>
      <point x="389" y="516"/>
      <point x="430" y="524" type="curve" smooth="yes"/>
      <point x="474" y="533" type="line"/>
      <point x="481" y="552" type="line"/>
      <point x="182" y="552" type="line"/>
      <point x="175" y="533" type="line"/>
      <point x="213" y="524" type="line" smooth="yes"/>
      <point x="247" y="516"/>
      <point x="251" y="510"/>
      <point x="237" y="476" type="curve" smooth="yes"/>
      <point x="76" y="77" type="line" smooth="yes"/>
      <point x="61" y="42"/>
      <point x="52" y="36"/>
      <point x="12" y="28" type="curve" smooth="yes"/>
      <point x="-33" y="19" type="line"/>
    </contour>
  </outline>
</glyph>
<glyph name="u.sc" format="2">
  <advance width="669"/>
  <anchor x="496" y="533" name="top"/>
  <outline>
    <contour>
      <point x="254" y="-9" type="curve" smooth="yes"/>
      <point x="348" y="-9"/>
      <point x="403" y="25"/>
      <point x="442" y="54" type="curve" smooth="yes"/>
      <point x="469" y="74"/>
      <point x="489" y="89"/>
      <point x="507" y="89" type="curve"/>
      <point x="665" y="476" type="line" smooth="yes"/>
      <point x="677" y="504"/>
      <point x="697" y="516"/>
      <point x="727" y="522" type="curve" smooth="yes"/>
      <point x="780" y="533" type="line"/>
      <point x="788" y="552" type="line"/>
      <point x="555" y="552" type="line"/>
      <point x="547" y="533" type="line"/>
      <point x="606" y="520" type="line" smooth="yes"/>
      <point x="631" y="515"/>
      <point x="643" y="502"/>
      <point x="633" y="477" type="curve" smooth="yes"/>
      <point x="510" y="173" type="line" smooth="yes"/>
      <point x="482" y="104"/>
      <point x="397" y="51"/>
      <point x="319" y="51" type="curve" smooth="yes"/>
      <point x="229" y="51"/>
      <point x="200" y="100"/>
      <point x="232" y="178" type="curve" smooth="yes"/>
      <point x="353" y="476" type="line" smooth="yes"/>
      <point x="367" y="510"/>
      <point x="375" y="516"/>
      <point x="416" y="524" type="curve" smooth="yes"/>
      <point x="461" y="533" type="line"/>
      <point x="469" y="552" type="line"/>
      <point x="170" y="552" type="line"/>
      <point x="162" y="533" type="line"/>
      <point x="199" y="524" type="line" smooth="yes"/>
      <point x="233" y="516"/>
      <point x="238" y="510"/>
      <point x="224" y="476" type="curve" smooth="yes"/>
      <point x="117" y="212" type="line" smooth="yes"/>
      <point x="67" y="89"/>
      <point x="134" y="-9"/>
    </contour>
  </outline>
</glyph>
<glyph name="v.sc" format="2">
  <advance width="678"/>
  <outline>
    <contour>
      <point x="225" y="-12" type="line"/>
      <point x="268" y="-12" type="line"/>
      <point x="691" y="499" type="line" smooth="yes"/>
      <point x="702" y="512"/>
      <point x="719" y="518"/>
      <point x="740" y="522" type="curve" smooth="yes"/>
      <point x="801" y="533" type="line"/>
      <point x="809" y="552" type="line"/>
      <point x="564" y="552" type="line"/>
      <point x="557" y="532" type="line"/>
      <point x="620" y="517" type="line" smooth="yes"/>
      <point x="642" y="512"/>
      <point x="651" y="504"/>
      <point x="644" y="489" type="curve" smooth="yes"/>
      <point x="642" y="486"/>
      <point x="639" y="483"/>
      <point x="637" y="480" type="curve" smooth="yes"/>
      <point x="324" y="101" type="line"/>
      <point x="344" y="101" type="line"/>
      <point x="346" y="480" type="line" smooth="yes"/>
      <point x="346" y="485"/>
      <point x="348" y="488"/>
      <point x="349" y="493" type="curve" smooth="yes"/>
      <point x="353" y="509"/>
      <point x="370" y="517"/>
      <point x="401" y="523" type="curve" smooth="yes"/>
      <point x="448" y="532" type="line"/>
      <point x="456" y="552" type="line"/>
      <point x="163" y="552" type="line"/>
      <point x="155" y="532" type="line"/>
      <point x="200" y="522" type="line" smooth="yes"/>
      <point x="207" y="520"/>
      <point x="218" y="517"/>
      <point x="218" y="512" type="curve" smooth="yes"/>
    </contour>
  </outline>
</glyph>
<glyph name="x.sc" format="2">
  <advance width="710"/>
  <outline>
    <contour>
      <point x="313" y="0" type="line"/>
      <point x="614" y="0" type="line"/>
      <point x="621" y="19" type="line"/>
      <point x="581" y="28" type="line" smooth="yes"/>
      <point x="573" y="30"/>
      <point x="567" y="34"/>
      <point x="562" y="45" type="curve" smooth="yes"/>
      <point x="442" y="300" type="line"/>
      <point x="436" y="308" type="line"/>
      <point x="352" y="493" type="line" smooth="yes"/>
      <point x="348" y="500"/>
      <point x="352" y="512"/>
      <point x="369" y="515" type="curve" smooth="yes"/>
      <point x="455" y="533" type="line"/>
      <point x="461" y="552" type="line"/>
      <point x="167" y="552" type="line"/>
      <point x="160" y="534" type="line"/>
      <point x="201" y="524" type="line" smooth="yes"/>
      <point x="215" y="521"/>
      <point x="218" y="515"/>
      <point x="223" y="504" type="curve" smooth="yes"/>
      <point x="336" y="251" type="line"/>
      <point x="347" y="243" type="line"/>
      <point x="425" y="74" type="line" smooth="yes"/>
      <point x="432" y="58"/>
      <point x="424" y="39"/>
      <point x="367" y="28" type="curve" smooth="yes"/>
      <point x="320" y="19" type="line"/>
    </contour>
    <contour>
      <point x="-55" y="0" type="line"/>
      <point x="183" y="0" type="line"/>
      <point x="190" y="19" type="line"/>
      <point x="130" y="34" type="line" smooth="yes"/>
      <point x="111" y="39"/>
      <point x="114" y="53"/>
      <point x="137" y="71" type="curve" smooth="yes"/>
      <point x="358" y="242" type="line"/>
      <point x="339" y="269" type="line"/>
      <point x="72" y="56" type="line" smooth="yes"/>
      <point x="56" y="43"/>
      <point x="34" y="35"/>
      <point x="15" y="31" type="curve" smooth="yes"/>
      <point x="-48" y="19" type="line"/>
    </contour>
    <contour>
      <point x="429" y="275" type="line"/>
      <point x="686" y="496" type="line" smooth="yes"/>
      <point x="701" y="509"/>
      <point x="724" y="517"/>
      <point x="744" y="521" type="curve" smooth="yes"/>
      <point x="807" y="533" type="line"/>
      <point x="813" y="552" type="line"/>
      <point x="574" y="552" type="line"/>
      <point x="568" y="533" type="line"/>
      <point x="627" y="518" type="line" smooth="yes"/>
      <point x="645" y="514"/>
      <point x="643" y="501"/>
      <point x="621" y="482" type="curve" smooth="yes"/>
      <point x="408" y="303" type="line"/>
    </contour>
  </outline>
</glyph>
